<svg id="Capa_1" data-name="Capa 1" xmlns="http://www.w3.org/2000/svg" viewBox="0 0 255.12 255.12"><defs><style>.cls-1{fill:#b59d6e;}</style></defs><path class="cls-1" d="M123,243.81c-3.16-.57-6.38-.92-9.48-1.74-15-3.93-25.41-13.46-32.47-27a59.92,59.92,0,0,1-2.93-6.81c12.37,16.55,28.57,25.82,49.41,25.76s37-9.4,49.53-25.74c-1,2.22-1.93,4.5-3.08,6.66-7.66,14.44-19,24.25-35.28,27.7-2.31.49-4.66.76-7,1.13Z"/><path class="cls-1" d="M243.79,132.08c-.37,2.33-.64,4.68-1.13,7-3.45,16.17-13.19,27.42-27.57,35-1.8.94-3.71,1.7-5.57,2.52a4.46,4.46,0,0,1-1.27.33c16.59-12.3,25.85-28.5,25.8-49.35s-9.4-37-25.74-49.53c2.17,1,4.4,1.89,6.51,3C227.27,87.53,236.54,97,241,110.48c1.21,3.64,1.66,7.54,2.45,11.32.11.52.21,1,.31,1.56Z"/><path class="cls-1" d="M41.55,127.43c2.72-.16,5.45-.3,8.16-.48a143.94,143.94,0,0,0,27.38-4.18,2,2,0,0,0,1.74-1.88c2.94-18.39,13-31.43,30.05-38.78,3.89-1.67,8.23-2.33,12.4-3.31a1.93,1.93,0,0,0,1.65-1.62,133.52,133.52,0,0,0,4-23.83c.37-4.72.6-9.44.86-13.61.33,4.77.66,10.11,1.1,15.44a126.82,126.82,0,0,0,3.85,22.21,1.63,1.63,0,0,0,1.6,1.43C155.1,81.4,172.63,98.23,176,119c.38,2.33,1.29,3.25,3.53,3.77a166.41,166.41,0,0,0,32.14,3.84c1.45.05,2.9,0,4.34.15-5,.39-10,.7-15,1.19a132.82,132.82,0,0,0-23,4.15,2,2,0,0,0-1.62,2c-2.35,20.73-19.44,38.68-40.08,41.88-2.64.41-3.59,1.46-4.17,3.92A175.68,175.68,0,0,0,128,212c-.06,1.34-.15,2.68-.09,4-.54-6.8-.84-13.64-1.72-20.4-.76-5.95-2.19-11.82-3.29-17.73a1.67,1.67,0,0,0-1.73-1.5c-22-2.77-39.74-20.47-42.36-42.22a1.74,1.74,0,0,0-1.51-1.72,133.39,133.39,0,0,0-22.71-3.85c-4.33-.37-8.68-.61-13-.9Zm127.1-.06c-9.85-2.42-17.88-8.44-25.09-15.65S130.27,96.41,127.77,86c-2.47,10.46-8.52,18.48-15.74,25.71S96.74,125,86.19,127.56c10.55,2.6,18.59,8.6,25.81,15.81s13.28,15.21,15.61,24.9C135,148.51,148.75,134.87,168.65,127.37ZM120,85.44A42.4,42.4,0,0,0,95.8,98.92a41.7,41.7,0,0,0-10.3,21C99.79,116.1,116.93,99,120,85.44ZM85.45,135.1a42.35,42.35,0,0,0,13.39,24.14,41.75,41.75,0,0,0,21.36,10.44C113.79,152.79,102.36,141.43,85.45,135.1Zm84-.12c-16.54,6.49-27.8,17.92-34,34.44C152.14,167.16,167.43,151.64,169.48,135Zm-.07-15.46c-2.61-17.31-18.24-31.7-33.93-33.81C141.71,102.12,152.94,113.37,169.41,119.52Z"/><path class="cls-1" d="M176.89,46.81C152.48,11.67,101,13,78.28,46.92c5.35-16,21-34.78,47.2-35.58,12.2-.37,23.46,2.48,33.27,10C167.37,28,173.2,36.65,176.89,46.81Z"/><path class="cls-1" d="M46.86,78.2c-34,22.94-35,73.94,0,98.69a55.44,55.44,0,0,1-25.31-18.14c-6.69-8.62-9.85-18.52-10.19-29.35-.4-13,3-24.8,11.48-34.86A55.1,55.1,0,0,1,46.86,78.2Z"/><path class="cls-1" d="M117.32,131.67h-8.9l-.1-.39,8.55-3.72-8.35-3.64,0-.37h9.24L111,117l.25-.37L120,120l-3.4-8.72.34-.25,6.11,6.54.45-.2V108.5l.42-.07,3.67,8.42,3.71-8.5.34.06v9.27l6.4-6.79.53.4c-1.09,2.77-2.17,5.55-3.4,8.7l8.73-3.42.27.36L137.6,123l.2.39h8.89l.1.42-8.49,3.71,8.26,3.63v.3h-9l6.72,6.59-.37.48-8.74-3.42,3.4,8.67-.23.19q-3.11-3.23-6.22-6.43l-.49.24v8.86l-.36,0-3.66-8.43c-1.33,3-2.52,5.75-3.7,8.46l-.27,0v-9.15l-6.45,6.8-.59-.48c1.1-2.8,2.19-5.6,3.43-8.75l-8.65,3.42-.19-.24,6.46-6.17Zm10.25-12.18a8.07,8.07,0,1,0,8.06,8.12A8.09,8.09,0,0,0,127.57,119.49Z"/></svg>