<svg id="Capa_1" data-name="Capa 1" xmlns="http://www.w3.org/2000/svg" viewBox="0 0 255.12 255.12"><defs><style>.cls-1{fill:#b59d6e;}</style></defs><path class="cls-1" d="M148.81,19.23c1.8,5,0,10.1-7.49,20.65a119.82,119.82,0,0,0,30.51-9.06A91.36,91.36,0,0,0,198.65,13a85.27,85.27,0,0,1-9,36.11c-5.73,11.31-14,20.2-25.46,26.1,3,.76,17.62-1.94,26.78-4.9,8.73-2.82,16.87-6.71,23.9-13.6-.35,1.92-.56,3.36-.88,4.78s-.73,2.83-1.17,4.22-1,2.89-1.55,4.3c-5.27,13.11-13.62,24-23.86,33.61a140.09,140.09,0,0,1-23,17.21q-.66.39-1.29.81c-.08,0-.1.19-.29.52,15.58,0,30.56-2,45.13-8.58-1,2.9-1.86,5.89-3.12,8.68-4.27,9.49-10.51,17.67-17.42,25.36-11.66,13-25,24.08-39,34.39-.55.4-1.08.83-1.93,1.49A70,70,0,0,0,173,179.72l.29.4c-2.47,3.12-4.83,6.33-7.41,9.35-17.51,20.46-38.4,36.2-63.9,45.41a116,116,0,0,1-37.25,7.17c-6.46.13-12.94-.22-19.41-.46a11.84,11.84,0,0,1-3.85-1c-.54-.21-.85-1-1.26-1.51a5.85,5.85,0,0,1,1.48-1,125.89,125.89,0,0,0,42.7-21.32c21.86-17,37.13-38.46,44.43-65.31,3.1-11.42,4.19-23,1.38-34.69-2.45-10.16-7.59-18.41-17.45-23-9.17-4.23-17.85-3.59-25.95,2.73A58.54,58.54,0,0,0,72.3,113.9c5.66-4.29,12.14-6.45,18.85-7.76-2.61,3.7-5.45,7.21-7.75,11-6.76,11.29-10.66,23.71-13.48,36.46-1.65,7.5-2.83,15.09-4.27,22.86-.62-.69-1.36-1.4-2-2.2-4.79-6.22-8-13.27-10.5-20.62a108.08,108.08,0,0,1-6-38.59c.59-20.32,6.75-38.55,20.8-53.66a83.37,83.37,0,0,1,32-21.23,178.31,178.31,0,0,1,23.3-7C133.11,31,141.91,27.17,148.81,19.23Z"/></svg>