<svg id="Capa_1" data-name="Capa 1" xmlns="http://www.w3.org/2000/svg" viewBox="0 0 255.12 255.12"><defs><style>.cls-1{fill:#b59d6e;}</style></defs><path class="cls-1" d="M12.11,127.2C12.57,64.33,62.22,13.3,125.1,12c65.5-1.33,115,50,117.76,109.59,1.51,31.8-8.39,59.78-29.72,83.36C191,229.48,162.88,241.67,130,243.11,64.71,243.79,12.68,192.31,12.11,127.2ZM129.65,15.7A109.65,109.65,0,0,0,71.53,30.88a111.4,111.4,0,0,0-40.1,39.88,109.16,109.16,0,0,0-15.35,63.61c1.82,29.23,13.48,54.32,35,74.39,20.78,19.4,45.55,29.62,74,30.38,59,1.59,113.24-45,114.33-111C240.38,70.07,193.71,17.44,129.65,15.7Z"/><path class="cls-1" d="M232.46,132.85a128.9,128.9,0,0,1-2,15.4,105.72,105.72,0,0,1-6.31,20.55,98.35,98.35,0,0,1-9.78,17.79,107.78,107.78,0,0,1-9.68,12.16,103.5,103.5,0,0,1-10.37,9.83c-1.91,1.57-3.87,3.1-5.9,4.55a104.6,104.6,0,0,1-9.36,5.92A101,101,0,0,1,167,224.89a102.79,102.79,0,0,1-14.39,4.67,106.39,106.39,0,0,1-30.08,2.83,103.73,103.73,0,0,1-16.48-2.08,105.29,105.29,0,0,1-21.7-7.14A111.06,111.06,0,0,1,69.63,215a113.26,113.26,0,0,1-10-7.64A87,87,0,0,1,51.83,200a94.43,94.43,0,0,1-9.24-11c-2.15-3.11-4.26-6.24-6.14-9.52a111.21,111.21,0,0,1-6.21-12.87,99.85,99.85,0,0,1-4.61-14.28,102.59,102.59,0,0,1-2.38-14.39,108,108,0,0,1,.21-23.36A101.94,101.94,0,0,1,29,91.32c.68-1.84,1.53-3.64,2.21-5.47a65.63,65.63,0,0,1,4.08-8.44,88.44,88.44,0,0,1,5.6-9.22c1.55-2.19,3.21-4.29,4.77-6.47.54-.74,1.2-1.37,1.76-2.09,1.41-1.78,3-3.42,4.55-5.06A108.43,108.43,0,0,1,64.12,43.73a95.59,95.59,0,0,1,13-8.41,108.05,108.05,0,0,1,15-6.8,105.71,105.71,0,0,1,20.63-5.05,97.49,97.49,0,0,1,17.32-1A117,117,0,0,1,147,24.26a104,104,0,0,1,24.73,7.85,100.31,100.31,0,0,1,16,9.26,105.53,105.53,0,0,1,26.64,27.11c1.84,2.68,3.48,5.48,5.12,8.28.09.15.22.27.32.41a6.26,6.26,0,0,0,1.12,2l0,0a6.13,6.13,0,0,0,.88,1.82v0l1.6,3.57a103.21,103.21,0,0,1,6.3,18.58A108.93,108.93,0,0,1,232,116.33a104.92,104.92,0,0,1,.59,13.84c-.19-.09-.25,0-.23.18s.13.12.21,0C232.54,131.2,232.5,132,232.46,132.85ZM126,229.65a100.76,100.76,0,0,0,72.79-28.9c19.71-19.22,30.17-42.86,31.06-70.41,1.81-56.27-43.07-103.83-100.08-105.1A102.38,102.38,0,0,0,25.44,128.12C25.49,181.92,68.66,228.44,126,229.65Z"/><path class="cls-1" d="M232.59,130.17l0,.21c-.08.09-.18.09-.21,0S232.4,130.08,232.59,130.17Z"/><path class="cls-1" d="M103.21,103.78a58.69,58.69,0,0,1-1.53-8.31c-.07-.92-.12-1.84-.19-2.75s.17-1.12,1-.8a42,42,0,0,1,15.39,9.62c.31.31.62,1,1.08.75s-.12-.84-.27-1.23c-1.3-3.28-2.71-6.52-3.94-9.83-1.83-4.89-3.7-9.82-4-15.09a28.06,28.06,0,0,1,3.44-15.65c-.34,4.89-.62,9.77,2.07,14.21.44-.22.36-.49.36-.72A33.4,33.4,0,0,1,121,56.4a15.67,15.67,0,0,0,2.53-8.2,55.12,55.12,0,0,0-1-6.39,14.12,14.12,0,0,1,.07-6.4A9.67,9.67,0,0,1,126,30.69a1.33,1.33,0,0,1,.37-.2,1.81,1.81,0,0,1,.41,0,19.59,19.59,0,0,0-1.22,2.07,7.54,7.54,0,0,0,.92,8.09,66,66,0,0,1,7.9,13.25c.87,2,1.64,4,2.46,5.94a66.52,66.52,0,0,1,3.22,9.61,40.91,40.91,0,0,1,1.33,12.17,28.16,28.16,0,0,1-1,5.4c-.06.25-.41.53,0,.73s.54-.11.74-.29a11,11,0,0,0,2.48-3.41,3.22,3.22,0,0,1,.72-1.3,12.29,12.29,0,0,1,.11,3.35,34.85,34.85,0,0,1-1.71,9.43c-.14.43-.57,1-.14,1.37s.88-.25,1.26-.49A45.7,45.7,0,0,1,152.72,92c.91-.33,1.09-.08,1.05.8a41.17,41.17,0,0,1-2.86,14,12.26,12.26,0,0,1-1.51,3.24c-.11.15-.18.35,0,.48.3.27.54,0,.73-.18,1.27-1,2.53-2,3.79-3.07,2.92-2.38,5.94-4.63,9-6.78a57.9,57.9,0,0,1,6.58-4,30.25,30.25,0,0,1,16.89-2.64,1.24,1.24,0,0,1,.52.21c-4.74,1.17-9.36,2.52-12.66,6.54.61.35,1-.06,1.38-.19a34.61,34.61,0,0,1,18.71-1,14.91,14.91,0,0,0,11.38-2.14,21.07,21.07,0,0,1,6.55-2.83,9.3,9.3,0,0,1,7.85,2.36,12.62,12.62,0,0,0-3.55-.78,7.78,7.78,0,0,0-6.66,3.49,63.66,63.66,0,0,1-9.27,10.79A95.7,95.7,0,0,1,187,121.18a37.93,37.93,0,0,1-13.71,5.69,20.45,20.45,0,0,1-3.92.16c.45,1,.45,1,6.14,2.57a39.39,39.39,0,0,1-6.77,1.85A46.23,46.23,0,0,1,162,132c-.25,0-.63-.06-.7.3s.21.42.41.57a41.69,41.69,0,0,1,7.43,7.35c.78,1,.75,1.1-.42,1.45A41.18,41.18,0,0,1,153,143.24a23,23,0,0,0-4-.36c1.82,1.15,3.38,2.15,5,3.11a108.87,108.87,0,0,1,14.29,10,28.54,28.54,0,0,1,7.16,9.45,29.39,29.39,0,0,1,2.45,7.27c.07.34.1.7.14,1.05,0,0-.08.1-.18.24-2.18-3.91-4.73-7.46-8.67-9.74a1.55,1.55,0,0,0-1.41-.31c.72,1.08,1.4,2.13,2.09,3.17a30.88,30.88,0,0,1,5,13.59c.35,2.92.86,5.82,2.59,8.32a26.92,26.92,0,0,0,3.81,4,29.05,29.05,0,0,1,3.45,3.73c2,2.71,2.32,7.06.63,9.74,0-.92.07-1.69,0-2.45a7.13,7.13,0,0,0-5.19-6.58c-8.72-2.57-16.47-7-23.87-12.09a45.38,45.38,0,0,1-12.83-12.74,29.31,29.31,0,0,1-2.48-5.28c-1.2,2-.49,4.14-.27,6.24-.4.1-.47-.25-.62-.44a37.3,37.3,0,0,1-5.62-10.38c-.17-.46-.36-.92-.56-1.38-.06-.15,0-.39-.27-.4s-.34.2-.41.4a19,19,0,0,1-.64,2,53.93,53.93,0,0,1-4.29,7.95c-.45.69-.74.78-1.26,0A40.83,40.83,0,0,1,120.18,154a6.07,6.07,0,0,0-.16-.83c0-.06-.07-.1-.17-.23a5.48,5.48,0,0,0-.67,2.06c-1.79,7.21-3.34,14.5-6.51,21.3a29.16,29.16,0,0,1-9.41,11.22A17.66,17.66,0,0,1,99,189.91c3.36-4,6.49-7.78,6.71-13.06-1,1.11-1.91,2.23-2.82,3.36a32,32,0,0,1-10.5,8.35,36.61,36.61,0,0,0-5.57,3.19c-2.46,1.86-3.66,4.53-4.86,7.21a21.27,21.27,0,0,1-2.92,4.87,9.13,9.13,0,0,1-8.45,3,14,14,0,0,0,3.51-1.38,7.3,7.3,0,0,0,3.44-6.23,79.2,79.2,0,0,1,.88-12.78,90.83,90.83,0,0,1,6.06-21.22,32.81,32.81,0,0,1,6.89-10.33,14.68,14.68,0,0,1,2.3-1.85c.19-.12.5-.22.43-.53s-.43-.34-.69-.31a10.34,10.34,0,0,0-4,1.23,9.36,9.36,0,0,1-1.32.61,22.39,22.39,0,0,1,3.53-4.71,50.27,50.27,0,0,1,5.57-5c.24-.18.62-.33.47-.71s-.5-.2-.76-.21a42,42,0,0,1-10.32-1.68c-1.1-.34-1.14-.37-.46-1.24a42.09,42.09,0,0,1,14.26-11.91c.21-.1.47-.15.57-.53a4.94,4.94,0,0,0-2.23,0,152.87,152.87,0,0,1-19.26.63,28.2,28.2,0,0,1-9.39-1.94,27.41,27.41,0,0,1-10.14-6.8c4.56,1.75,9.11,3.45,14.07,2.25l0-.29L69.17,120a30.48,30.48,0,0,1-11.43-8.16,17.82,17.82,0,0,0-5.41-4.18,17.89,17.89,0,0,0-5.44-1.26c-2.5-.36-5.06-.5-7.37-1.7a9.89,9.89,0,0,1-4.74-5.81.68.68,0,0,1,.07-.74c1.75,2.66,4.07,4.31,7.36,4.28a13.83,13.83,0,0,0,4.19-1.07,67.16,67.16,0,0,1,11.75-2.6,100.87,100.87,0,0,1,15.91-1,41.41,41.41,0,0,1,14.47,2.77,24.75,24.75,0,0,1,4.86,2.74c.47.24.38,0,.3-.32-.46-2.14-2.15-3.36-3.5-4.9,4.69,1.07,8.79,3.4,12.76,6,.09.07.18.2.3.07S103.28,103.88,103.21,103.78Zm17.24,28.76.29-.08.65.27a10.08,10.08,0,0,0-1.85,3.72,4.82,4.82,0,0,0-1,.61c-1.84,1.88-4.35,2.63-6.58,3.84a34.68,34.68,0,0,1-4.33,1.4,3.41,3.41,0,0,0-1.69,1c-1.53,1.57-3,3.16-4.45,4.81a61.41,61.41,0,0,0-7.31,10.59,65.92,65.92,0,0,0-4.5,10.12,70.38,70.38,0,0,0-3.54,14.14c0,.34-.24.79,0,1s.73-.1,1.07-.25a55.58,55.58,0,0,0,5.88-3.3,66.79,66.79,0,0,0,12.8-10,63.22,63.22,0,0,0,12.22-16.66c.66-1.31,1.57-2.59,1.6-4.1a34.61,34.61,0,0,1,1.37-9.82,4.06,4.06,0,0,1,1.44-2.5,6.68,6.68,0,0,0,2-2.12h0c.5-.06.61.2.48.62s-.25.63-.37,1l0,0h0l-.36.93v0a34.25,34.25,0,0,0-1.51,8.52A38.17,38.17,0,0,0,127.08,165c.14.27,0,.81.56.77.37,0,.42-.44.55-.71a37.68,37.68,0,0,0,4-13.17,31.37,31.37,0,0,0-1.59-14.69,11.91,11.91,0,0,0-1-2.63c-.07-.31-.41-.58-.12-1a18.72,18.72,0,0,0,3.07,3.71c.41.36,1,.6,1.17,1.18a39,39,0,0,1,1.8,8.4c.1,1.5-.26,3,.41,4.48a65.59,65.59,0,0,0,7.21,12,70.56,70.56,0,0,0,10.51,11,65.27,65.27,0,0,0,7.88,5.7,57.78,57.78,0,0,0,6.67,3.68c.3.13.63.51.95.23s-.09-.58-.08-.88a10.08,10.08,0,0,0-.64-2.72c-.43-1.8-.87-3.59-1.43-5.36a85.6,85.6,0,0,0-6.38-15.07,69.35,69.35,0,0,0-11.87-16,6.55,6.55,0,0,0-2.73-2.1,31,31,0,0,1-8.68-4.06,3.8,3.8,0,0,1-1.87-2.07,10.89,10.89,0,0,0-1.64-3.06l.47-.22a3.47,3.47,0,0,1,.46.27,32.06,32.06,0,0,0,13.41,6.58,38.83,38.83,0,0,0,14.92.47c.3-.05.71,0,.82-.34s-.28-.44-.46-.64A36.82,36.82,0,0,0,151,130.27a31.26,31.26,0,0,0-15.51-2.38.71.71,0,0,0-.81.1c-.25,0-.55.2-.8-.26,2.32-.41,4.21-1.7,6.26-2.66,1.46.12,2.93.26,4.39.35,1.09.07,2.11.58,3.22.41a6.08,6.08,0,0,0,3.41.91A55.47,55.47,0,0,0,167,123.51a68.94,68.94,0,0,0,16.75-8.7A67.32,67.32,0,0,0,194.17,106c.21-.22.58-.42.48-.77s-.59-.32-.92-.36a82.73,82.73,0,0,0-20.38,0,69.86,69.86,0,0,0-24.54,7.23,2,2,0,0,0-1,.78,25.78,25.78,0,0,1-5.16,6.5c-1.29,1.22-2.51,2.76-4.19,3.14a47.75,47.75,0,0,0-5.83,1.26c10.43-6,15.72-15.36,17.6-27a1.05,1.05,0,0,0-.91.16,39.72,39.72,0,0,0-6.27,3.89,34.1,34.1,0,0,0-6.45,6.25,31.58,31.58,0,0,0-5.5,10.07,15,15,0,0,0-1.13,4.17c-.06.07.1.32-.18.21,0,0,0-.06,0-.09a17.52,17.52,0,0,0-.42-4.68,2.77,2.77,0,0,1-.21-1.92c.89-2.15,1.52-4.41,2.87-6.34a1,1,0,0,0,.28-.88c.22-.13.41-.27.24-.56v0c.44.09.48-.33.68-.54,1.53-1.58,1.93-3.61,2.31-5.68a61.84,61.84,0,0,0,.19-21A71.8,71.8,0,0,0,128.13,57c-.12-.21-.16-.54-.43-.57s-.38.35-.51.58a72.93,72.93,0,0,0-6.61,17.33,50.73,50.73,0,0,0-1.21,6.72,65.4,65.4,0,0,0,.58,20.66,8.6,8.6,0,0,0,1.42,3.91,27.27,27.27,0,0,1,4,7.39c.32.89.94,1.8.78,2.72a26,26,0,0,0-.65,5.9c-.48-1.74-.9-3.48-1.52-5.15a33.55,33.55,0,0,0-7.33-11.62A38.19,38.19,0,0,0,106,97c-.21-.1-.43-.37-.67-.21s-.14.5-.09.78a38.72,38.72,0,0,0,5.43,14.73,33.86,33.86,0,0,0,8.71,9.26,8.83,8.83,0,0,1,2.41,2,25.7,25.7,0,0,0-5.36-1,45.61,45.61,0,0,1-5.93-5.44,33.94,33.94,0,0,1-3.06-4.18,3.14,3.14,0,0,0-1.3-1.18,74.44,74.44,0,0,0-8.83-4c-2.32-.8-4.65-1.6-7-2.17a69,69,0,0,0-16.38-1.89,65.61,65.61,0,0,0-12.5,1.13c-.68.13-.87.28-.34.89a50.25,50.25,0,0,0,6.24,5.79,72.1,72.1,0,0,0,12.45,8.22,65.18,65.18,0,0,0,8.07,3.58,61.26,61.26,0,0,0,13.08,3.13,13.27,13.27,0,0,0,4.31.15c1.45-.3,2.87-.79,4.33-1,3.12-.44,6.27-1,9.14,1.1a10.19,10.19,0,0,0,2.71,1,37.05,37.05,0,0,0-8.49.11,34.23,34.23,0,0,0-11.7,3.85,37.76,37.76,0,0,0-9.38,7c-.19.2-.48.38-.42.69s.37.29.6.32a39.83,39.83,0,0,0,14.72-.37,32.17,32.17,0,0,0,11.57-5c.78-.53,1.8-.86,2.19-1.87Zm-1.29-30-.06-.07a.67.67,0,0,0-.06.12s0,0,0,.07Z"/><path class="cls-1" d="M133.71,138.39c.47,0,.76.28,1.12.51.54.33,1.15.76,1.77.07.23-.26.43-.15.6.08,2.06,2.84,5.12,4.49,7.84,6.54a12.6,12.6,0,0,1,4.1,4.74.85.85,0,0,1,0,1,8.55,8.55,0,0,0-2.1-2,9.48,9.48,0,0,0-1.89-.93c-.25-.1-.56-.27-.76,0a.66.66,0,0,0,.19.78c1,1.11,1.93,2.25,3,3.3,2.2,2.24,4.56,4.32,6.64,6.66,3.5,3.94,6.38,8.26,7,13.73a8.44,8.44,0,0,0,3.51,6.26c.07,0,.1.17.23.41A7.7,7.7,0,0,1,160.6,177a16.53,16.53,0,0,1-2.9-5.6,27.82,27.82,0,0,0-4.24-8,9.42,9.42,0,0,0-2.09-2c-.26.49,0,.77.19,1.06a7,7,0,0,1,.83,3.36c0,.26.13.63-.24.71s-.37-.28-.47-.5a22,22,0,0,0-3.29-5.27,52.56,52.56,0,0,0-5.34-5.1,29.37,29.37,0,0,1-5.88-6.74,4.94,4.94,0,0,0-1.66-2.13A39,39,0,0,0,133.71,138.39Z"/><path class="cls-1" d="M119.54,136.45a7.39,7.39,0,0,1-.41,1.85c-.2,1,0,1.17,1.15,1-2.45,3.26-3.17,7.16-4.57,10.79-.76,2-1.64,4-3.67,5.33.14-1.19,1-2,1.06-3,.05-.56.18-1.11.22-1.67,0-.27,0-.62-.34-.72s-.54.13-.69.39c-.92,1.62-1.93,3.2-2.74,4.88-2.4,4.92-4.91,9.75-8.62,13.85a18.92,18.92,0,0,1-5.67,4,10.22,10.22,0,0,0-5.33,5.52,5.64,5.64,0,0,1,.55-3.89,14.16,14.16,0,0,1,3.61-4.08,28.64,28.64,0,0,0,8.69-9.49,2.06,2.06,0,0,0,.11-.61c.16-.12.26-.34.09-.41s-.21.15-.22.31c-1.26.57-2.12,1.73-3.42,2.24a1.7,1.7,0,0,1-1.18.19c-.06-.44.28-.54.47-.7a22.79,22.79,0,0,0,6.37-9.45,39.25,39.25,0,0,1,6.48-11.05,6,6,0,0,0,.5-.8c2.24-1.21,4.75-2,6.59-3.84A4.82,4.82,0,0,1,119.54,136.45Z"/><path class="cls-1" d="M116.4,122.57c-.49,0-1,.08-1.47.14-1.08.11-1.18.3-.65,1.34-.5.24-.89-.16-1.27-.27a23.13,23.13,0,0,0-6.63-.5c-2.75,0-5.51.18-8.15-.86a2.42,2.42,0,0,1-1.4-1c1.06-.13,2.06.27,3.07.07.2,0,.44,0,.63,0,.51-.21,1.34-.31,1.37-.81s-.78-.63-1.3-.77c-3.39-.91-6.89-1.17-10.32-1.8a46.65,46.65,0,0,1-8.83-2.43,21.61,21.61,0,0,1-7.36-4.93,9.3,9.3,0,0,0-6.92-3.14,6.6,6.6,0,0,1,4.15-.75A13.46,13.46,0,0,1,77,109.4a27.08,27.08,0,0,0,9.85,4.66c.55.11,1.44.53,1.63,0s-.76-.72-1.25-1a5.13,5.13,0,0,1-2.44-2.81,26.5,26.5,0,0,0,8.18,3.12c2.15.31,4.32.54,6.49.74a28.87,28.87,0,0,1,9.27,2.38c.58.26,1.19.43,1.79.65A45.61,45.61,0,0,0,116.4,122.57Z"/><path class="cls-1" d="M140.11,125.07c.2-.53.69-.78,1.08-1.12.95-.84.94-.94-.36-1.43,1.12-.59,2.23-1,3.26-1.54a44.88,44.88,0,0,0,5-3.5,16.46,16.46,0,0,1,6.26-3.15,3.35,3.35,0,0,1,.63,0,2.33,2.33,0,0,1,.44.22,16,16,0,0,0-3,2.15c-.43.44-1.25.95-.94,1.49s1.12,0,1.68-.2c3.21-1.12,6.07-3,9.1-4.46a44.18,44.18,0,0,1,9.5-3.5,21.12,21.12,0,0,1,8.08-.1c2.58.4,5.13.3,7.42-1.3a6.42,6.42,0,0,1-3.47,3.06,16.7,16.7,0,0,1-6,.94,26.31,26.31,0,0,0-9.41,1.72,15.93,15.93,0,0,0-1.58.84c-.2.11-.57.12-.48.45s.48.3.73.22a6.61,6.61,0,0,1,2.73,0,5.09,5.09,0,0,1,1.9.54c-.71.49-1.37.28-2,.39a24.31,24.31,0,0,0-8.08,2.9c-2.17,1.3-4.34,2.6-6.61,3.7a26.92,26.92,0,0,1-8.25,2.5c-1.11.17-2.13-.34-3.22-.41C143,125.33,141.57,125.19,140.11,125.07Z"/><path class="cls-1" d="M129.18,114.84c-.51-.11-.53-.62-.74-1-.57-.92-.69-.94-1.47-.09-.4-1.82-.47-3.64-1-5.41-.53-1.94-1.38-3.75-1.88-5.69a16.2,16.2,0,0,1-.59-5.45,2.24,2.24,0,0,1,.57-1.24,11.1,11.1,0,0,0,.95,3.57c.2.37.42.73.65,1.09s.37.5.68.4.22-.48.23-.74c.11-3-.62-5.81-1.12-8.68a42.68,42.68,0,0,1-.37-14.95,15,15,0,0,1,1.4-3.76,25.87,25.87,0,0,0,1.77-4.41,10.2,10.2,0,0,0-.23-4.69A8.29,8.29,0,0,1,130,71c-.49,2.17-1.07,4.32-1.59,6.48a18.78,18.78,0,0,0-.3,7.86,1.82,1.82,0,0,0,.47,1.15c.46-1.93.72-3.87,2.44-5.2a25.77,25.77,0,0,0,.21,12.56,36.36,36.36,0,0,1,1.23,11.42,4.7,4.7,0,0,0,.09,1.79v0l-.24.56a1,1,0,0,1-.28.88C130.7,110.43,130.07,112.69,129.18,114.84Z"/><path class="cls-1" d="M121.84,123.58l-.09,0a8.64,8.64,0,0,0-2.4-2,2.22,2.22,0,0,0-.83-1.51,22.9,22.9,0,0,1-3.17-4.61.28.28,0,0,1,.44,0c.35.23.57,1,1.08.5s-.11-.76-.26-1.13c-1-2.38-3-3.79-4.86-5.45s-3.41-3.3-3.62-5.87a2.27,2.27,0,0,1,.28-1.8c.78,1,1.1,2.2,2,3.1,1.65,1.79,3.82,2.87,5.69,4.35.44.35.82.77,1.25,1.13.15.12.32.34.54.16a.45.45,0,0,0,0-.59c-.33-.61-.67-1.2-1.14-2a11.23,11.23,0,0,1,4.13,4.42,45,45,0,0,1,3.46,7.33c.09.25.32.58,0,.77s-.51-.14-.73-.31l-1.19-.87c-.32-.23-.67-.55-1-.27s-.22.73-.12,1.09a12.73,12.73,0,0,0,1.55,3.57c.09.15.25.26.17.5a.53.53,0,0,1-.7-.36Z"/><path class="cls-1" d="M131.14,117.15c.44-.09.58-.45.77-.8a18.84,18.84,0,0,1,3.56-4.3,2.11,2.11,0,0,1,.33-.18c.14.21,0,.3-.06.42-.09.47-.62,1.13-.24,1.34s1-.38,1.34-.75A14.21,14.21,0,0,0,139.7,108c.94-2.29,1.93-4.55,4.13-6a3.76,3.76,0,0,1,2-.87c.17,0,.36,0,.46.18s0,.27-.12.36c-2.59,2.11-3.23,5.21-4.11,8.18a9.15,9.15,0,0,1-.87,2.15c-.12.21-.31.46-.08.67s.54.06.74-.15.63-.72,1.07-1.23c.25,2.88-7.83,10.62-9.87,11.23a7.1,7.1,0,0,0,1.18-2.51c.1-.42.27-.87-.08-1.2s-.72.06-1.06.2a7.45,7.45,0,0,0-2,1.58c-.34.29-.6.7-1.13.7A15,15,0,0,1,131.14,117.15Z"/><path class="cls-1" d="M135.46,127.89c1.7.6,3.53.58,5.27,1a28.73,28.73,0,0,0,2.79,1c.24,0,.52.3.21.52-.74.55-.14.77.23,1a13.62,13.62,0,0,0,5.35,1.52c2.74.16,5.49.35,7.83,2.11a6.07,6.07,0,0,1,1.61,2.17c-.84.26-1.19-.41-1.69-.65-2.35-1.1-4.83-.87-7.29-.79a19.51,19.51,0,0,1-3-.06c-.28,0-.73-.27-.84.12s.4.48.69.62a12,12,0,0,1,1.49.81,11.89,11.89,0,0,1-6-1.09,57,57,0,0,1-7.64-4.26c.07-.18-.56-.64.27-.54a19.28,19.28,0,0,0,2.74,0c.23,0,.54,0,.65-.27s-.12-.56-.33-.71a9.38,9.38,0,0,0-2.15-1.51,3.24,3.24,0,0,1-1.06-.84A.71.71,0,0,1,135.46,127.89Z"/><path class="cls-1" d="M120.46,132.52a23.46,23.46,0,0,1-3.76,1.86,14.78,14.78,0,0,1-3.13.91c-.32,0-.69,0-.43-.4.84-1.2-.3-.77-.66-.78-1.54-.05-2.83.74-4.16,1.35-1.7.77-3.15,2-4.92,2.65-2.07.79-4.09,1.27-6.14.07,0-.39.25-.39.45-.41a10.56,10.56,0,0,0,6.39-2.93,19.91,19.91,0,0,1,4.55-3,1,1,0,0,0-1.17-.31,9.24,9.24,0,0,1-1.44.1,3.69,3.69,0,0,1,1.9-1.35,32,32,0,0,1,11-2.06c.21,0,.46,0,.58.16s-.13.44-.3.59c-.48.42-1,.82-1.46,1.23-.21.18-.5.33-.4.67s.44.44.76.44a10.15,10.15,0,0,0,4.76-.51,9.11,9.11,0,0,1-1.46,1.9l-.65-.28c-.19-.28-.21,0-.28.08Z"/><path class="cls-1" d="M130.63,137.17c-.2,1.76.33,3.49.19,5.26a9.39,9.39,0,0,1-.48,2.73c-.1-.42-.2-.84-.32-1.25-.06-.2-.14-.44-.39-.44s-.29.27-.32.47a12.87,12.87,0,0,0,.06,5.56,19.66,19.66,0,0,1,.84,7,6.44,6.44,0,0,1-1.3,3.06.5.5,0,0,1-.64.23.34.34,0,0,1-.16-.45c.88-2.93-.29-5.56-1.24-8.2a11,11,0,0,1-.84-3.46c0-.23.11-.55-.25-.59s-.41.22-.51.46a4.17,4.17,0,0,0-.18,1.36c0,.16,0,.39-.21.43s-.33-.2-.38-.4a14.58,14.58,0,0,1-.23-4.42,45.71,45.71,0,0,1,1.59-9.13c0-.12.14-.22.28-.45a21,21,0,0,1,.6,2.1,3,3,0,0,0,.56,1.12c.39.6.73.45,1-.07A4.23,4.23,0,0,0,129,136a2.25,2.25,0,0,1,.56-1.45A11.64,11.64,0,0,1,130.63,137.17Z"/><path class="cls-1" d="M134.24,132.1l.06.29-.48.22c-.44-.52-.78-1.11-1.27-1.6C133.35,131.06,133.62,131.85,134.24,132.1Z"/><polygon class="cls-1" points="124.7 136.77 124.71 136.81 124.67 136.79 124.7 136.77"/><path class="cls-1" d="M120.45,132.54c.07-.1.09-.36.28-.08Z"/><path class="cls-1" d="M132.33,107.62l.24-.56C132.74,107.35,132.55,107.49,132.33,107.62Z"/><path class="cls-1" d="M119.16,102.49l-.07.12s-.06,0,0-.07a.67.67,0,0,1,.06-.12Z"/><path class="cls-1" d="M93.69,102.93c.08.27.17.56-.3.32Z"/><path class="cls-1" d="M103.21,103.78c.07.1.16.21,0,.33s-.21,0-.3-.07A3.19,3.19,0,0,1,103.21,103.78Z"/><path class="cls-1" d="M124.61,135.19h0Z"/><path class="cls-1" d="M124.35,137.73v0Z"/><path class="cls-1" d="M125.08,135.17a1.69,1.69,0,0,1,.78-1.52A1.65,1.65,0,0,1,125.08,135.17Z"/><path class="cls-1" d="M121.84,123.58l.44,0Z"/><path class="cls-1" d="M102.76,160.47c0-.16,0-.42.22-.31s.07.29-.09.41Z"/></svg>