<svg id="Capa_1" data-name="Capa 1" xmlns="http://www.w3.org/2000/svg" viewBox="0 0 255.12 255.12"><defs><style>.cls-1{fill:#b59d6e;}</style></defs><path class="cls-1" d="M174.12,143.05a21.4,21.4,0,0,0-3.22,1.79c-2.12,1.7-4.11,3.57-6.19,5.34a2.63,2.63,0,0,0-1.08,2.46,7.84,7.84,0,0,1-6.77,8.15,7.75,7.75,0,0,1-8.85-6,2.54,2.54,0,0,0-1.69-2.05c-4.82-2.26-9.62-4.6-14.46-6.81a15.13,15.13,0,0,0-2.91-.54c-4.38-1-7.81,1.45-11.45,3.09-3.41,1.55-6.8,3.19-10.14,4.89a3.45,3.45,0,0,0-1.51,1.79,7.92,7.92,0,0,1-9.17,5.61,7.74,7.74,0,0,1-6.35-8.46A3.05,3.05,0,0,0,89,149.22a51.41,51.41,0,0,1-4.25-3.7c-1.5-1.49-2.93-2.4-5.33-2.1-3.44.42-6.38-1.83-7.59-5a7.73,7.73,0,0,1,2.52-9,2.64,2.64,0,0,0,1.23-2.56,22.61,22.61,0,0,1,0-2.73c.08-2.29.06-4.28-2.18-6-2.48-1.94-2.67-6-1.16-8.9a7.68,7.68,0,0,1,8.2-4.09,3.22,3.22,0,0,0,3-.92c1.94-1.82,4-3.48,6-5.32a2.91,2.91,0,0,0,.83-2.1c-.37-4.6,2.16-8.14,6.6-9,3.88-.79,7.59,1.67,9,5.84a3.39,3.39,0,0,0,1.57,1.73c4.78,2.36,9.62,4.58,14.41,6.93a14.65,14.65,0,0,0,4.84,1c3.27.41,5.88-.82,8.6-2.16,3.69-1.83,7.45-3.5,11.14-5.35A3,3,0,0,0,147.86,94a8,8,0,0,1,15.83,2.18,2.87,2.87,0,0,0,.81,2q3.47,3.23,7.12,6.23a3.48,3.48,0,0,0,2.1.67c3.94-.15,6.91,1.45,8.32,4.61s.61,6.58-2,9.31a2.94,2.94,0,0,0-.73,1.7c-.11,1.39,0,2.79,0,4.18,0,2.28,0,4.28,1.92,6.22,2.2,2.23,2.06,5.39.67,8.19a7.61,7.61,0,0,1-7.42,4.3Zm-71.26-41,13,13c2.37,2.37,2.37,2.37.67,5.32,0,0-.1.06-.32.2l-9.33-2.25,3.5-7.18c-3.36,1.67-6.35,3-9.22,4.64a4.06,4.06,0,0,1-3.25.44c-3.49-.89-7-1.69-10.64-2.55L86.68,116l10,2.48-6.49,5.77,6.49,5.79-10,2.47.62,2.31c3.62-.86,7.12-1.78,10.66-2.48a5.65,5.65,0,0,1,3.2.47c3,1.34,5.89,2.88,9.24,4.55l-3.53-7.19c3.21-.78,6-1.48,8.83-2.13a1.19,1.19,0,0,1,.94.28c1.54,1.6,1.49,2.89-.13,4.51l-13.64,13.56,1.67,1.69c.52-.47.92-.82,1.3-1.2,4-4,8-8,12-11.94a5.14,5.14,0,0,0,1.73-3.6,7.6,7.6,0,0,1,4.73-6.6c.27-.13.53-.31.87-.52-4.26-2.23-5-3.37-5.77-8.23a3.75,3.75,0,0,0-1-1.8c-4.09-4.15-8.22-8.25-12.34-12.37-.46-.45-.93-.88-1.43-1.36Zm46.83-1.15c-4.62,4.63-9.12,9.12-13.58,13.66a3.13,3.13,0,0,0-.66,1.77,8.43,8.43,0,0,1-2.43,5.72,27.43,27.43,0,0,1-3.2,2.21c4.46,2.74,4.84,3.32,5.62,8.38a2.22,2.22,0,0,0,.48,1.13c4.54,4.59,9.12,9.17,13.74,13.8l2-1.65c-1.14-1.06-2.22-2-3.25-3-3.65-3.63-7.3-7.27-10.91-10.95-.32-.33-.59-1.16-.4-1.47.52-.91,1.41-2.43,1.95-2.35,2.89.42,5.73,1.26,8.93,2l-3.27,6.65a60.4,60.4,0,0,0,8.75-4,4.4,4.4,0,0,1,3.58-.54c3.2.86,6.44,1.56,9.78,2.35.23-.87.4-1.54.61-2.32l-9.3-2.28,6.49-5.77-6.49-5.75,9.34-2.31-.65-2.3c-3.47.82-6.74,1.69-10.05,2.33a5.18,5.18,0,0,1-3-.47c-3-1.37-5.91-2.91-8.85-4.38l-.17.37,3.23,6.61c-2.8.68-5.25,1.29-7.71,1.85-.85.19-1.79,1-2.39-.55-.52-1.3-1.45-2.23.12-3.69,4.34-4,8.45-8.35,12.65-12.56.31-.31.58-.69.88-1.05ZM93,152.86a5.18,5.18,0,1,0,5.25-5.15A5.3,5.3,0,0,0,93,152.86Zm39.6-20.69a5.21,5.21,0,1,0-10.42-.11,5.21,5.21,0,1,0,10.42.11Zm23.14,15.53a5.24,5.24,0,0,0-.08,10.48,5.24,5.24,0,0,0,.08-10.48ZM79.21,130.45a5.17,5.17,0,1,0,.13,10.33,5.17,5.17,0,1,0-.13-10.33Zm48.11-8.86a5.18,5.18,0,0,0,5.3-5,5.21,5.21,0,1,0-10.42,0A5.22,5.22,0,0,0,127.32,121.59Zm42.28-8.77a5.35,5.35,0,0,0,5.09,5.34,5.24,5.24,0,0,0,.19-10.47A5.32,5.32,0,0,0,169.6,112.82ZM150.52,95.36a5.22,5.22,0,0,0,5,5.39,5.34,5.34,0,0,0,5.45-5,5.21,5.21,0,0,0-10.42-.43ZM93,95.48a5.2,5.2,0,0,0,5.12,5.28,5.25,5.25,0,0,0,5.23-5.18A5.18,5.18,0,0,0,93,95.48Zm-19,17.33a5.42,5.42,0,0,0,5.1,5.35,5.25,5.25,0,1,0,.21-10.49A5.39,5.39,0,0,0,74.07,112.81Zm100.82,17.64a5.13,5.13,0,0,0-5.3,5.09,5.25,5.25,0,0,0,5.17,5.25,5.32,5.32,0,0,0,5.24-5A5.24,5.24,0,0,0,174.89,130.45Zm-48.46-23.51-20.55-9-1.06,2.16c5.45,2.4,10.75,4.63,16,7.06A5.39,5.39,0,0,0,126.43,106.94Zm0,34.69c-2-1.23-3.76-1.38-5.6-.24a22.2,22.2,0,0,1-2.81,1.25l-13.17,5.79,1.06,2.16Zm2-34.69c1.88,1.11,3.45,1.39,5.28.39s4-1.76,6-2.64c3.15-1.38,6.28-2.78,9.57-4.24l-1.15-2.11Zm0,34.69,19.64,8.59,1.15-2c-.44-.23-.81-.44-1.18-.6-4.7-2.06-9.45-4-14.08-6.23A5,5,0,0,0,128.48,141.63Zm34.3,7.54,7.53-6.89-1.8-1.6-7.14,6.55ZM93,146.81l-7.18-6.58L84.18,142l7.25,6.58Zm77.27-40.58-7.49-6.81-1.47,1.9,7.19,6.56Zm-84.46,2.13,7.09-6.53-1.39-2-7.36,6.74ZM80.1,127.55c0-1.66-.1-3.23,0-4.78.15-1.84-.67-2.23-2.33-1.81v6.59Zm96.92-7-2.16.36v6.56l2.16.38Z"/><path class="cls-1" d="M126.33,241.62c-2.86-6.09-5.06-12.12-5-19,.25-23.94.1-47.89.1-71.84,0-3.37,1.4-4.45,4.89-3.77Z"/><path class="cls-1" d="M128.53,146.51a26.72,26.72,0,0,1,4.27,1.34c.44.22.64,1.32.64,2q0,27.75-.07,55.5c0,6-.15,12,0,18a31.09,31.09,0,0,1-2.14,12.24q-1.14,3-2.3,6l-.45-.08Z"/><path class="cls-1" d="M138.84,72.28c-.8-.89-1.16-1.35-1.58-1.77a3.57,3.57,0,0,0-4.35-.73,3.14,3.14,0,0,0-1.8,3.78c.35,1.34-.29,1.94-1,2.83a46,46,0,0,0-2.64,4.21c-1.07-1.55-2.3-3.3-3.49-5.08a1.84,1.84,0,0,1-.35-1.09c.24-2.75-.27-4.07-1.91-4.77s-3.31-.18-5,1.84c-.08.09-.18.15-.63.52-.39-1.12-.72-2.1-1.13-3.3l-1.61,1a28.32,28.32,0,0,1-3.63,2.38,3,3,0,0,1-4.31-2c-.45-1.57.12-3,1.35-3.34,1.44-.43,2.52.29,3.17,2.21a13.69,13.69,0,0,1,2.37-1.68A13.09,13.09,0,0,1,116.51,66c2.77-.21,2.89-.17,2.86-3.21.65.51,1.13.88,1.6,1.27s.94,1,1.52,1.24a7.77,7.77,0,0,0,2.17.12c-.09-.65-.18-1.3-.28-2,0-.17-.06-.34-.14-.72h6.51a4.4,4.4,0,0,0-.38.89c-.08.59-.12,1.19-.17,1.78a4.9,4.9,0,0,0,1.83,0,7,7,0,0,0,1.73-1.25c.5-.39,1-.82,1.55-1.31.39,3.06.41,2.87,3.32,3.15a14.63,14.63,0,0,1,4.42,1.7,13.1,13.1,0,0,1,2,1.4c.12-1.82,1.08-2.54,2.64-2.36s1.87,1.19,1.82,2.48c-.06,1.76-1.31,3.36-2.84,3.16a11.15,11.15,0,0,1-3.78-1.51,27.79,27.79,0,0,1-3.06-2.3Z"/><path class="cls-1" d="M180.07,64.9l-2.79,2.66c-3.38-2.4-6.59-4.87-10-7a72.76,72.76,0,0,0-33.1-11.1c-2.05-.18-2.32-.87-1.52-4.21A79,79,0,0,1,180.07,64.9Z"/><path class="cls-1" d="M77.93,67.6,75,65c10.33-10.61,34.63-20.61,47.29-19.56,0,.05.11.09.11.13.44,3.54.43,3.51-3.38,4A75.18,75.18,0,0,0,79,66.71Z"/><path class="cls-1" d="M75,183.7a2.78,2.78,0,0,1,.18-.38c2.85-2.21,2.84-2.19,5.67,0a76.38,76.38,0,0,0,36.92,15.38c1.45.2,2.24.63,2,2.24a15.2,15.2,0,0,0,0,2.16A78.62,78.62,0,0,1,75,183.7Z"/><path class="cls-1" d="M135,203.08v-4a75.62,75.62,0,0,0,41.38-17.72c1.14.81,2.15,1.55,3.39,2.44A78.82,78.82,0,0,1,135,203.08Z"/><path class="cls-1" d="M124,23.19c.94-1.14,6-1.13,7.25.32-3.25,1.26-1.07,3.94-1.51,6-.31,1.44.08,3,.05,4.54s-.24,2.77-.27,4.16c0,3-.07,5.92,0,8.87.05,2.5.26,5,.34,7.48.05,2,0,4.05,0,6.23H125c0-1.93,0-3.82,0-5.72,0-1.45.18-2.9.21-4.36s0-2.77,0-4.15-.12-2.92-.15-4.37c0-1.79,0-3.57,0-5.36,0-1,0-2.08,0-3.12.13-2.6.43-5.2.39-7.8C125.38,25.06,124.54,24.23,124,23.19Z"/><path class="cls-1" d="M135.8,70.51c-1.63,2-1.52,2.33,1.79,5.2-2.69,3.27-2.78,3.93-1.19,6.77-1,1.57-2.3,2.85-2.83,4.38-.7,2,1,3.13,2.15,3.93-.67,1.53-1.66,2.9-1.8,4.35s.57,3,1,4.7c-1.83.71-3.65,2.69-6.59,1.44V98.54c0-4.24.09-8.49,0-12.73s1.16-7.85,4.88-10.24C131.82,71.63,132.62,70,135.8,70.51Z"/><path class="cls-1" d="M119.58,99.71c2.23-3.8,2-6.36-.87-8.53C120.05,90,122,89,121.27,86.91c-.53-1.52-1.75-2.81-2.81-4.44,1.65-3.18,1.55-3.89-1.28-6.69,1.3-1.49,4.35-2.35,2-5.27l.31-.43c.83.39,2.15.6,2.38,1.21.44,1.21.28,2.65.4,4.48A15.29,15.29,0,0,1,125,79a13.2,13.2,0,0,1,1.45,5.31c.19,5.08.07,10.17.07,15.26,0,1.83-1,2.66-2.7,2.07A42.63,42.63,0,0,1,119.58,99.71Z"/><path class="cls-1" d="M183.19,73.73l2.89-2.87A78,78,0,0,1,203.59,102l-3.9.92A76.35,76.35,0,0,0,183.19,73.73Z"/><path class="cls-1" d="M68.75,70.91l2.59,2.55c-3.22,4.73-6.67,9.14-9.4,14s-4.72,10-7.16,15.38L51.31,102A78.89,78.89,0,0,1,68.75,70.91Z"/><path class="cls-1" d="M67.64,93.59c-1.28,3.32-2.49,6.46-3.7,9.58a2.88,2.88,0,0,0,.76,3.44c1.18,1.12,2.26,2.33,3.56,3.69-1.77.65-3.38,1.26-5,1.82a2.54,2.54,0,0,0-1.95,2.32c-.2,3.12-.47,6.24-.47,9.36,0,1.33-.67,1.51-1.59,1.68s-1.71-.14-1.64-1.3c.18-3.43.43-6.86.59-10.29a5.54,5.54,0,0,0-.33-2.4,5.37,5.37,0,0,1,1.59-6.83,5.37,5.37,0,0,0,1.35-2C62,99.86,62.9,97,64.14,94.24S66.08,91.63,67.64,93.59Z"/><path class="cls-1" d="M177.63,95.37c-2.28-3-4.38-5.69-6.44-8.43A2.82,2.82,0,0,0,168,86L163,87.06c.38-1.68.67-3.14,1-4.59s.29-2.71-1-3.7c-2.71-2-5.37-4.06-8.24-6.23.19-2.42.81-2.86,3.09-1.41,2.49,1.59,4.77,3.51,7.21,5.18a8.7,8.7,0,0,0,3,1.38A5.35,5.35,0,0,1,172.4,82a8.76,8.76,0,0,0,1.38,3c1.65,2.39,3.53,4.62,5.09,7.06S180.11,94.93,177.63,95.37Z"/><path class="cls-1" d="M91,87.05c-1.75-.38-3.32-.72-4.89-1.09A2.9,2.9,0,0,0,82.76,87c-1.74,2.46-3.62,4.83-5.16,7.4-.74,1.23-1.41,1-2.35.68-1.23-.44-1.15-1.32-.56-2.16,1.85-2.68,3.81-5.29,5.64-8a7.93,7.93,0,0,0,1.29-2.84A5.49,5.49,0,0,1,86,77.67a8.57,8.57,0,0,0,3-1.4c2.33-1.62,4.51-3.46,6.88-5s2.93-1.31,3.42,1.26l-8.18,6.12A3.05,3.05,0,0,0,90,82.3C90.39,83.78,90.65,85.32,91,87.05Z"/><path class="cls-1" d="M193.88,125.05c-.34-3.67-.67-7.08-1-10.49a2.67,2.67,0,0,0-2-2.46c-1.58-.55-3.15-1.14-4.94-1.79,1.42-1.48,2.75-2.71,3.85-4.12a3,3,0,0,0,.59-2.4c-1.11-3.36-2.42-6.66-3.76-10.24,1.54-2,2.29-1.94,3.53.78s2.1,5.42,3.23,8.09a7.15,7.15,0,0,0,1.65,2.46A5.65,5.65,0,0,1,196.6,111a11.9,11.9,0,0,0-.4,4c.09,2.72.51,5.43.51,8.15S196,126.14,193.88,125.05Z"/><path class="cls-1" d="M202.53,149c-.47,5.66-10.09,22.32-16.34,28.21-.46-.62-.86-1.27-1.36-1.82-.87-1-.69-1.71.12-2.65a71.39,71.39,0,0,0,10.26-15.78,49.37,49.37,0,0,0,2.58-6c.58-1.78,1.44-2.64,3.35-2.15A12.88,12.88,0,0,0,202.53,149Z"/><path class="cls-1" d="M52.3,149.28c.16-.13.21-.19.26-.2,3.59-.47,3.59-.47,4.93,2.87a71.18,71.18,0,0,0,11.34,19.17c1.41,1.69,1.72,3,.3,4.65-.27.32-.47.7-.71,1C63.52,173,53.92,156.63,52.3,149.28Z"/><path class="cls-1" d="M221.68,148.11c-13.35-.76-26.76-.87-39.77-5.12.38-.55.83-1.15,1.22-1.79s.75-1.38,1.19-2.19Z"/><path class="cls-1" d="M190.19,186.23c-8.93-8.73-18.06-17.65-27.12-26.52l2.21-4.27C175.57,164.21,182.54,175.69,190.19,186.23Z"/><path class="cls-1" d="M64.24,187c7.42-11.11,14.3-22.62,24.47-31.54l2.22,4.11Z"/><path class="cls-1" d="M188.94,187.87c-10.85-7.66-22.2-14.76-30.92-25.23l4.12-2.13Z"/><path class="cls-1" d="M72.34,142.93c-6.21,2.58-30.83,6-38.91,5.18L69.83,139Z"/><path class="cls-1" d="M65.71,187.79,91.9,160.48l4.19,2C87.68,172.84,76.57,180.12,65.71,187.79Z"/><path class="cls-1" d="M69.65,133a23,23,0,0,1-.07,3.72c-.07.47-.86,1-1.41,1.17-6.92,1.74-13.85,3.41-20.77,5.1-4.47,1.09-8.92,2.19-13.39,3.27a3.53,3.53,0,0,1-1.38.07C44.72,141.1,56.54,135.13,69.65,133Z"/><path class="cls-1" d="M184.76,137.7c-.14-1.62-.26-3.1-.4-4.64,13.19,2,25,7.84,37,13.27Z"/><path class="cls-1" d="M205.67,137.23l-3.4-1.36c.09-5.7.27-11.12.25-16.55a42.8,42.8,0,0,0-.73-6.66c-.4-2.5,1.71-1.7,2.75-2.1,1.32-.49,1.17.75,1.29,1.54A78.51,78.51,0,0,1,205.67,137.23Z"/><path class="cls-1" d="M49.16,136.94a79.23,79.23,0,0,1,.22-26.61l3.49.79c-.22,5.5-.5,10.75-.62,16a30.22,30.22,0,0,0,.5,6.15,2,2,0,0,1-1.51,2.7C50.62,136.19,50,136.53,49.16,136.94Z"/><path class="cls-1" d="M190.45,57.61c.06.49.14,1,.22,1.71l1.75.33L172.61,79.39l-2-1.88Z"/><path class="cls-1" d="M61.47,59.6l1.76-.17.3-1.59L83.31,77.67l-1.86,1.9Z"/><path class="cls-1" d="M225.15,99.43,224,101.49l1.85,1.42-27.67,6.41c-.29-1.19-.55-2.22-.86-3.47Z"/><path class="cls-1" d="M28.34,102.91l1.84-1.35-1-2.07,8.84,2q8.22,1.89,16.45,3.81c2.4.56,2.4.57,1.8,2.9-.07.28-.13.56-.26,1.12Z"/><path class="cls-1" d="M233.14,99.7c-1.53,1.64-2.52,3.61-3.76,3.78s-2.71-1.47-3.75-2.62c-.47-.51,2.45-4.09,3-3.8C230.05,97.74,231.35,98.62,233.14,99.7Z"/><path class="cls-1" d="M24.56,104.35c-1.09-1.74-2.8-3.29-2.56-4.44s2.53-2.84,3.66-2.65,2.73,2.39,2.69,3.67C28.32,102,26.19,103,24.56,104.35Z"/><path class="cls-1" d="M194.25,58.51c-2.69,0-2.69,0-2.69-2.6,0-2.92,0-2.94,2.9-2.94,2.64,0,2.64,0,2.63,2.79S197.09,58.51,194.25,58.51Z"/><path class="cls-1" d="M62.43,56c0,2.5,0,2.5-3,2.5-2.43,0-2.43,0-2.43-2.79S57,53,59.68,53,62.43,53,62.43,56Z"/><path class="cls-1" d="M69.93,117.11c-2.22-.61-4.34-1.19-6.45-1.82-.27-.08-.68-.53-.63-.65a1.78,1.78,0,0,1,.77-1c1.9-.72,3.83-1.33,5.78-2Z"/><path class="cls-1" d="M162.22,79.49c1,3-.63,5.32-.83,7.83l-5-2.47Z"/><path class="cls-1" d="M165.25,93.73c-.86-1.75-1.6-3.25-2.44-5,2.46-.25,4.72-1.82,7.82-.92Z"/><path class="cls-1" d="M97.69,84.86,93,87.13c-1.45-2.24-2-6.26-.81-7.31Z"/><path class="cls-1" d="M91.23,88.87c-.82,1.63-1.57,3.11-2.42,4.81l-4.94-5.33C84.75,87,86.55,87.18,91.23,88.87Z"/><path class="cls-1" d="M191.39,115.14l-7,2c.15-1.87.29-3.58.45-5.55,2.25,1.18,5,1,6.83,3Z"/><path class="cls-1" d="M72.74,104.93l-2.84,4.63c-1.52-1.46-3.07-2.92-4.57-4.42a1.08,1.08,0,0,1-.14-1,1,1,0,0,1,.78-.5C68.2,104.05,70.43,104.49,72.74,104.93Z"/><path class="cls-1" d="M181.45,104.94c2.24-.43,4.41-.86,6.58-1.23.29,0,.89.15.9.28a1.88,1.88,0,0,1-.21,1.3c-1.32,1.54-2.73,3-4.18,4.6C183.35,108,182.45,106.53,181.45,104.94Z"/><path class="cls-1" d="M130.23,17.38l-1.37,3.56H126c-.5-1.29-.93-2.41-1.38-3.56Z"/><path class="cls-1" d="M123.28,15.85c.34-1.31,2.18-2.48,4.1-2.4a12.33,12.33,0,0,1,3.62.81c.34.12.45.92.74,1.59Z"/><path class="cls-1" d="M116.18,125.42l-9.72,2.34v-6.94c3.14.75,6,1.35,8.85,2.21C115.76,123.17,115.86,124.48,116.18,125.42Z"/><path class="cls-1" d="M139.07,125.5c-.63-1.94.11-2.64,1.86-2.93,2.41-.42,4.78-1.09,7.43-1.71v6.88Z"/></svg>