<svg id="Capa_1" data-name="Capa 1" xmlns="http://www.w3.org/2000/svg" viewBox="0 0 255.12 255.12"><defs><style>.cls-1{fill:#b59d6e;}</style></defs><path class="cls-1" d="M164.86,170.68c-9.69,5.58-20.05,8.42-31,9.86.35,3.49.67,6.86,1,10.23.83,8,1.69,15.91,2.46,23.88.14,1.44.51,2.49,2,2.91.35.11.66.38,1,.48,3.14.79,4.29,3.08,4.58,6.27H115.7c0-2.33.33-4.52,3.08-5.41,2.94-.94,3.86-3,4-6,.46-10.16,1.24-20.3,1.89-30.44,0-.48,0-1,0-1.54-10.83-1-21.3-3.18-31.27-8-.92,2.89-1.83,5.69-2.7,8.49-2,6.29-4,12.57-5.84,18.88a4.3,4.3,0,0,0,.2,2.55,38.62,38.62,0,0,0,2.24,4.68,3.45,3.45,0,0,1-.16,4.05L63.45,196.82c2.11-.83,3.91-1.5,5.68-2.26a2.65,2.65,0,0,0,1.31-1.05c4.32-8.88,8.6-17.79,12.85-26.61-24-20.47-33.05-45.9-25-76.54,6-23,23.47-38.39,37.06-44.42C78.18,57.85,68.64,74.12,68.24,95.06s8.65,37.58,25.37,50.42l22.68-47,.25.1c-5.29,16.93-10.57,33.87-15.91,51a67.22,67.22,0,0,0,25.08,6.22c.79-26.73,1.56-53.3,2.34-79.87h.21c1.32,26.55,2.63,53.1,4,79.86,9-1,17.6-3.07,25.68-7.35L142.53,99.1l.32-.14,21.75,45.11c16-13.32,24-30.07,22.84-50.7s-11.21-36.28-28.12-47.88c.74.35,1.5.65,2.2,1,20.77,11.63,33.57,29.08,36.87,52.7,3.5,25.14-4.7,46.42-23.2,63.74-.76.71-.95,1.18-.48,2.15,4.5,9.23,8.91,18.49,13.43,27.7a4.45,4.45,0,0,0,2,1.83c1.58.8,3.28,1.36,5.29,2.17l-23.69,14.69c-.81-1.38-1.15-2.65-.16-4,.13-.17.16-.41.28-.58,2.74-3.67,2.28-7.37.83-11.5C169.86,187.39,167.5,179.13,164.86,170.68Z"/><path class="cls-1" d="M50.26,148.87c-2.71,6.88-5.88,13.42-7.33,20.79-1.16-.55-2.38-1.07-3.54-1.69C28,161.81,20.61,152.19,16.32,140.18c-5.77-16.12-5.31-32.36-.16-48.54C20.83,77,28.83,64.47,40.92,54.78A55.28,55.28,0,0,1,67.07,43c.27,0,.54,0,.92-.06-.12.2-.15.36-.25.41-9.37,4.52-16.53,11.54-22.3,20a83.39,83.39,0,0,0-14.72,44.14c-.4,9.71,1,19.09,5.52,27.81A28.61,28.61,0,0,0,50.26,148.87Z"/><path class="cls-1" d="M189,42.78A40.81,40.81,0,0,1,203.4,47c13.6,6.72,23.34,17.31,30.28,30.6a79.85,79.85,0,0,1,9.3,37.56c0,14.71-3.65,28.34-12.8,40.16A44.13,44.13,0,0,1,212.77,169c-.58.26-1.19.47-1.76.7-1.23-7.33-4.25-13.93-6.79-20.84.76-.38,1.53-.73,2.28-1.13,7.31-3.91,11.76-10.2,14.62-17.75a60.41,60.41,0,0,0,3.42-26.15,84.52,84.52,0,0,0-13.31-40c-5.57-8.69-12.55-16-21.83-20.78A3,3,0,0,1,189,42.78Z"/><path class="cls-1" d="M127.38,56.52a12.42,12.42,0,0,1,.06-24.84,12.42,12.42,0,1,1-.06,24.84Z"/></svg>