<svg id="Capa_1" data-name="Capa 1" xmlns="http://www.w3.org/2000/svg" viewBox="0 0 255.12 255.12"><defs><style>.cls-1{fill:#b59d6e;}</style></defs><path class="cls-1" d="M239.41,133.22a5.61,5.61,0,0,1,.36,2.08c-.59,3.3-1.43,6.55-2,9.85-.31,1.94.07,4-.34,5.91A110,110,0,0,1,229,175.87c-.18.38-.8.54-1.2.82s-.6.34-.74.6c-1.78,3.3-3.56,6.6-5.28,9.94a2.71,2.71,0,0,0-.13,1.25,18.69,18.69,0,0,0-5.06,5.93c-.19.32-.16.8-.39,1.05-1.54,1.63-3.06,3-3.81,5.47-.63,2.07-3,3.61-4.5,5.31l-1.57-.72a6.09,6.09,0,0,1-.37,1.3,29.39,29.39,0,0,1-1.9,3.09,7.91,7.91,0,0,1-1.47,1.23l-1.37-.95v2.41a91.42,91.42,0,0,1-8.39,6.25c-1.47.87-2.62,2.12-4.13,2.91-1.66.87-3.17,2-4.84,2.9a44,44,0,0,1-4.66,1.88,2,2,0,0,1-.91,0c-.53-.07-1-.19-1.56-.29l.32,1.76c-3.15,2.37-4.46,2.68-6.11,1l-.35,2.36c-1-1.31-1.81-1-2.64,0-.24.28-1,.2-1.53.17-.77,0-1.54-.16-2.63-.29l.76,2a20.17,20.17,0,0,1-2.33,1.06c-8.46,2.63-17,4.7-25.95,4.89-3.82.08-7.63.29-11.44.52a1.71,1.71,0,0,1-2.11-1.49c-.12-.53-.65-1-1-1.44l-.58.36.87,2.71-9.85-1.47.26-.53L108,235l-2.57.18.46,1.82a6.18,6.18,0,0,1-2,.29c-1.77-.39-3.5-.92-5.23-1.47-.29-.1-.45-.56-.82-1-1.06,1.43-2.59.17-3.85-.33-6.8-2.68-13.57-5.44-20.25-8.4-2.1-.94-3.87-2.63-5.82-3.93-3.16-2.12-6.36-4.19-9.51-6.33-1.44-1-3.12-1.87-4.12-3.23-1.33-1.8-3.14-2.89-4.69-4.33-.87-.81-1-2.4-1.5-3.63-.11-.28-.29-.54-.47-.89l-1.76,1-1.19-1.3,1.36-.64-.1-.65-2.77-.36c-1.75-2.17-4-4.82-6.06-7.55a99.38,99.38,0,0,1-6.59-10.35,107,107,0,0,1-15.21-57.35c.07-3.69.91-7.36,1.31-11,.16-1.48,0-3,.13-4.46a70.4,70.4,0,0,1,1-7.26A108.33,108.33,0,0,1,31.58,69c1.29-2.12,3.06-3.94,4.55-5.94A43.39,43.39,0,0,0,39,58.81,29.16,29.16,0,0,1,48.59,49c.31-.2.71-.72.64-1-.37-1.36.67-1.91,1.4-2.6A110.58,110.58,0,0,1,83.86,23.83,13.51,13.51,0,0,1,87,23.27c.93-.16,2.06,0,2.78-.49,6.73-4.54,14.55-5.44,22.23-6.66,3.3-.53,6.7-.32,10.05-.49a19.78,19.78,0,0,1,2.68-.41c3.66.35,7.3.9,11,1.23a7.74,7.74,0,0,0,5-.78c.25-.16.74,0,1.1.09,4.34,1,8.67,1.89,13,2.9,2.86.66,5.73,1.31,8.51,2.2a65.35,65.35,0,0,1,9.19,3.54c1.16.58,1.77,2.28,2.63,3.47l.77-.5.48-1,3.79,2.21c.2-.05.66-.33.89-.2,10.77,6,20.64,13.28,29,22.48.63.69,2,1.18,1.18,2.57,1.3.17,1.36,1.45,2,2.23,1.73,2.23,3.33,4.56,5,6.81.5.66.73,1.85,2.07,1.38.1,0,.41.39.57.64,1.79,2.87,3.75,5.66,5.28,8.67,1.26,2.47,1.9,5.25,3,7.8s2.75,5,3.64,7.6c.52,1.52,2.31,2.7,1.46,4.78-.19.46,1.25,1.45,1.21,2.15-.17,2.89,1.4,5.27,2,7.91a2.64,2.64,0,0,1-.11.68l-.75-.65c0,.1-.08.21-.05.29.5,1.39-.12,3.21,1.71,4.14.29.15,0,1.36,0,2.08s-.24,1.55.08,2c1.42,2.2,1.32,4.46.69,6.84-.32,1.18-.82,2.47.58,3.41a.69.69,0,0,1,.19.5c0,1.92-.08,3.84-.09,5.77,0,.71.17,1.42.13,2.12A25.62,25.62,0,0,1,239.41,133.22ZM145.53,35c-.25-.51-.44-1-.72-1.48s-.46-.77-.74-.81c-4.83-.62-9.64-1.79-14.56-.68-.37.09-.84-.39-1.29-.55a2.91,2.91,0,0,0-1-.23,100.53,100.53,0,0,0-24.35,3.24C90.3,38,78.6,43.14,68.93,52.15c-.37.34-.8.61-1.19.92a98.7,98.7,0,0,0-7.81,6.07A82.37,82.37,0,0,0,43.51,81c-1,1.82-1.73,3.9-3.15,5.3a5.58,5.58,0,0,0-1.65,4.22,7.77,7.77,0,0,1-3.15,6.3A1.78,1.78,0,0,0,35,98c0,1.89.2,3.78.25,5.66a3.74,3.74,0,0,1-.42,1.42,25.12,25.12,0,0,0-1.37,3.11c-.51,1.93-.39,4.16-1.33,5.82-1.06,1.89-1,3.7-.93,5.59.08,4.55.44,9.1.37,13.65a28.17,28.17,0,0,0,1.45,9.4c.13.41.34.79.48,1.19a13.17,13.17,0,0,1,1,2.88c.16,1.38-.24,2.85.06,4.18a80.27,80.27,0,0,0,7.4,19.82c.43.81,1.34,1.45,1.54,2.28A9.28,9.28,0,0,0,47,178.44a8.57,8.57,0,0,1,2,2.4c1.21,2.07,2,4.47,3.46,6.3a93.63,93.63,0,0,0,17.39,17c1.13.83,2.2,2,3.94,1.85.52,0,2,0,1.9,1.62,0,.4,1.1,1,1.78,1.38,1,.55,2.21.87,3.21,1.48,1.33.81,2.42,2.09,3.82,2.68,5.17,2.2,10.35,4.47,15.69,6.17,3.31,1.05,6.61,2.15,10.42,1.93,4.19-.25,8.45,1.32,12.72,1.83a34,34,0,0,0,12.88-.77,23,23,0,0,1,7.64-1.15c3.13.28,5.88-.91,8.79-1.36,1.19-.18,2.12-1.79,3.75-1,.19.1.68-.35,1-.59s.78-.68,1.2-1c1.84-1.26,4.56-.1,6.13-2.19.1-.13.49,0,.72-.09,1.33-.47,3.13-.58,3.86-1.53,1.56-2,4-2,5.86-3.29,2.91-1.94,6.07-3.52,8.95-5.51,1.71-1.17,3-2.91,4.64-4.25,1.45-1.19,3.3-2,4.56-3.3,3.82-4,7.39-8.35,11.17-12.45,2.19-2.38,3-5.42,4.37-8.19,1.14-2.28,2.66-4.38,3.81-6.67,1-2.07,1.83-4.26,2.66-6.42.53-1.36.92-2.78,1.43-4.15a8.22,8.22,0,0,1,.74-1.14,37.17,37.17,0,0,0,2.13-4c.53-1.33,1.33-2.85-.47-4,2.24-1.7,2.58-3,1.7-5.44-.11-.31.33-.86.59-1.24s.71-.39.73-.61c.26-3.16.46-6.32.69-9.49,0-.59.12-1.18.2-1.89l-1.4-1.22.24-.35,1.81.4c-.27-2.83-.52-5.5-.8-8.16-.05-.49-.09-1.25-.38-1.4-2.43-1.21-.89-1.68.54-2.17-.8-1.54.68-3.87-2-4.49,1.25-2.57-.74-4.44-1.65-6.77,1.61.25,1.9-.28,1.57-1.45-.61-2.1-1-4.28-1.68-6.35-1.23-3.61-2.45-7.24-4-10.71s-2.21-7.27-5.75-9.23a4.74,4.74,0,0,0-.44-2.43,5.9,5.9,0,0,0-1.67-2.56c-.6-.36-1.75.19-2.65.34l-.18-.55L206.61,73a15.34,15.34,0,0,0-9.09-7.28l-1.34-2.43,1.74-.32c-.59-2.07-3.67-4.63-5.39-4.59v-2l-.59.39a71.57,71.57,0,0,0-5.6-5.2c-5.05-3.79-10.12-7.54-16.09-9.88-4-1.58-7.85-3.55-11.84-5.17a16.88,16.88,0,0,0-3.75-.53,6.6,6.6,0,0,1-1.06-.47,11.27,11.27,0,0,0-2.86-.81,10.19,10.19,0,0,0-2.68.55l-1-1.85Z"/><path class="cls-1" d="M58.5,74.64c3.28-3.51,6.43-7.15,9.87-10.51A72.74,72.74,0,0,1,89,49.81c4.45-2,8.73-4.72,13.68-5.55.52-.09,1.1.25,1.65.3.35,0,.9,0,1-.17.81-1.16.78-1.18,1.94.14.63-.62,1.24-1.25,1.89-1.83a2,2,0,0,1,.9-.49c10.57-1.6,21.18-2.39,31.76-.47,5.3,1,10.48,2.63,15.69,4,.55.15,1,.79,1.4,1.28.06.07-.46.61-.71.92,1.65,1.17,3.38.93,5.45.8s4.36,1.6,6.65,2.57l-1.14,2,.24.24,1.82-1.29c9.35,5,17,11.93,23.92,20.48a8.18,8.18,0,0,1-2.51,1.43c-4.08.58-7.34,2.76-10.58,5-.93.65-1.84,1.32-2.81,1.9-.29.18-.75.09-1.13.12-7.88,9.07-7.14,18.67-.5,28.59l-1.33-.21c0,.12,0,.29,0,.36a3.93,3.93,0,0,1,.93,4.18c-1.17,3.46-2.43,6.89-3.65,10.34l-.7.06c-1.69-1.89-3.48-3.7-5-5.69-2.9-3.68-5.51-7.62-8.59-11.14a8,8,0,0,0-4.82-2.2c-9.12-1-15.61,3.66-19,11.22-1.92,4.29-2.36,8.3-.41,12.63,1.78,4,2.62,8.35,5.28,11.95,2.83,3.84,6.35,6.4,11.18,7.16,1.76.28,3.38,1.39,5.14,1.75a23.19,23.19,0,0,0,5.88.43,23.93,23.93,0,0,1,13,2.68c.2.1.38.37.56.35,4-.27,6.66,2,9.18,4.62a38.74,38.74,0,0,1,3.59,4.1,17.36,17.36,0,0,1,1.45,3.25c2,.47,1,2.94,2.36,4.48h-1.83c2.21,2.36,2.09,5.19,1.54,7.71a43.4,43.4,0,0,1-3.53,10.26c-1,2-3.18,3.46-4.86,5.12a22,22,0,0,1-2.6,2.23c-1.5,1.05-3.09,2-4.62,3s-2.83,2.06-4.34,2.94c-3.45,2-6.77,4.62-10.51,5.63A102.4,102.4,0,0,0,151.22,211c-3.34,1.3-7.05,1.67-10.61,2.35-.33.06-1-.5-1.15-.9-1.42-3.24-3.33-6.41-4-9.81s-.16-7.08.21-10.6c.8-7.65,2.24-15.26,2.64-22.93.22-4.21-1.27-8.48-3.32-12.32-2.22-4.14-4.42-8.31-7-12.24-2.45-3.78-5.65-6.74-10.62-6.86a17.71,17.71,0,0,1-3.55-.89c1.43-1.81,2.41-3.64,3.91-4.84,3.18-2.52,4.66-6.14,6.72-9.38,1-1.54,0-4.26-1.55-5.57s-4.16-1.57-5.64-.49-2.92,2.54-4.41,3.79c-1.33,1.12-2.71,2.18-4.06,3.28a3.65,3.65,0,0,0-.78.79c-2.24,3.27-4.43,6.58-6.73,9.82a1.71,1.71,0,0,1-1.59.4c-2.23-1.09-4.4-2.32-6.79-3.62,4.59-6.78,6.77-14.92,12.8-20.43,6.73-6.15,13.48-12.39,21.6-16.76,3.58-1.93,7.31-3.57,11.08-5.39a7.63,7.63,0,0,1,1,5.56,4.51,4.51,0,0,0,5.72,5.27c3.69-1,5-2.57,4.92-6.43a60.39,60.39,0,0,0-.42-7.5,13.35,13.35,0,0,0-1.6-4.52c-2.5-4.44-5.14-8.8-7.75-13.18-1-1.7-2.23-3.29-3.08-5.07-1.75-3.63-3.3-7.36-5-11-.36-.8-.83-1.54-1.26-2.31-1.88-3.34-4.84-4.27-8.11-2.56-3,1.57-3.87,4.67-2.23,8,2.64,5.46,5.18,11,7.9,16.4,1.2,2.39,2.72,4.61,4.27,7.2a84.29,84.29,0,0,0-29.2,18.58c-.81-3.45-1.4-6.71-2.36-9.85-2.94-9.61-8.8-17.17-16.78-23.16A5.73,5.73,0,0,0,76.1,65c-2.18,3-1.56,6,1.69,8.44,6.39,4.84,11,11,12.88,18.82a96.44,96.44,0,0,1,1.74,12.84,6,6,0,0,1-.76,3.23c-2.42,4.44-5,8.8-7.64,13.47-1.3-4.74-2.6-9.43-3.88-14.12s-2.49-9.57-3.86-14.32-4.83-8-8.16-11.31c-2.45-2.43-5.21-4.54-7.87-6.74-.26-.21-.83-.06-1.26-.09Zm106.77,86.79a8.79,8.79,0,0,0-6.51,1.95,7.27,7.27,0,0,1-1.33.69c-3.27,1.65-6.19,3.87-7.49,7.31a72.21,72.21,0,0,0-2.46,10.15c-.09.39.26.89.47,1.31.32.63.74,1.23,1.05,1.87a11.31,11.31,0,0,0,.69,1.71c4,5.54,9.15,9.08,16.21,8.32a17.76,17.76,0,0,0,7.52-2.92c1.84-1.21,3-3.48,4.54-5.17,2.88-3.12,4.11-6.67,3.12-10.88-.88-3.8-2.23-7.2-5.22-10.08A14.23,14.23,0,0,0,165.27,161.43Z"/><path class="cls-1" d="M44.61,152.18c-.3-2-1.84-3.57-.74-5.63.13-.23-.16-.7-.28-1a35.91,35.91,0,0,1-2.09-12.87c0-1.23-.57-2.48-.49-3.69.41-5.73.92-11.45,1.46-17.17a16.18,16.18,0,0,1,.81-3.4c.1-.3.67-.45,1-.67a2.84,2.84,0,0,1,1.32-4.37c.22-2,.09-4,.73-5.61s.6-3.85,2.84-4.1c.57-1.95,1.05-3.94,1.72-5.86s1.77-2.48,3.5-1.53a32.4,32.4,0,0,1,5.86,4.31,21.85,21.85,0,0,1,6.37,11c2.29,8.18,3.26,16.74,7,24.51a9.91,9.91,0,0,1,.42,2.48,5,5,0,0,1,1.23,1c4.4,6,10.32,10.13,16.44,14.11,5.49,3.56,11.64,4.46,18,5a48,48,0,0,1,8,1.53,6,6,0,0,1,2.77,2.1c3.47,4.42,5,9.58,5.61,15.11.89,7.8-.73,15.34-2,22.93-1,5.93-1.28,11.81.86,17.61.71,1.91,1.17,3.93,1.81,6.12-2.28-.12-4.34-.19-6.39-.37a15.31,15.31,0,0,1-2.27-.55,8.73,8.73,0,0,0-2-.41c-1.06,0-2.17.42-3.17.23-3.55-.69-7-1.57-10.8-2.43.34-.81.49-1.33.75-1.79,3.52-6.12,4.64-12.75,4.38-19.71-.12-3.18-.07-6.36-.11-9.54a1.69,1.69,0,0,0-.12-.71c-.8-1.73-1.77-3.39-2.41-5.17-3.23-9.08-10-14.61-18.39-18.57-2.65-1.26-5.44-2.23-8.11-3.46-1.64-.76-3.16-1.78-4.73-2.68l-.12.71c-.7.06-1.72.44-2,.12-.8-.81-1.42-.4-2.23-.25a12.38,12.38,0,0,1-3.54.19,43.85,43.85,0,0,0-19.61,2.22C45.54,152,45.23,152,44.61,152.18Z"/><path class="cls-1" d="M204.56,168.28c-1.66-3.77-2.93-7.52-4.88-10.88-3.52-6.1-8.72-10.43-15-13.83-5.45-3-11.36-2.52-17.07-3.59a47.69,47.69,0,0,1-6.3-1.71c-2.13-.73-4.16-1.73-6.28-2.49-4.46-1.6-6.59-5.14-7.72-9.4-.91-3.46,1-6.19,2.85-8.8a2.09,2.09,0,0,1,2,0,16.22,16.22,0,0,1,3.14,3.94c2.21,4.36,5.53,7.74,9.12,10.89,6.16,5.39,14.79,5,19-2.29a25.56,25.56,0,0,1,2.82-3.43,49.56,49.56,0,0,1,1.09-5c2.54-7.86,2.31-15.42-2.13-22.59a7.11,7.11,0,0,1,3.42-10.15c.19-.06.51.22.42.18a22.48,22.48,0,0,1,2.65-2,8.54,8.54,0,0,1,7.86-.61c2.67,1.21,5.65,2.29,6,6.09l1.29-.51c1.71,1.32,5.34,13.82,4.86,16.64,1.66,1,2.37,6.13,1.38,7.39.23,2.74.23,5.14.66,7.47.69,3.7.09,7.3-.34,10.94a7.4,7.4,0,0,0,.39,2.07,4,4,0,0,1,.21,1.58c-1.46,6.21-2.86,12.44-4.54,18.59-.57,2.11-2,4-2.86,6C205.89,164.52,205.27,166.39,204.56,168.28Z"/><path class="cls-1" d="M94.35,189.29a4.65,4.65,0,0,1,.28,5.82,1.38,1.38,0,0,0-.09.84c.38,3.57-1.36,6.41-3.19,9.2-.15.22-1.08.22-1.39,0-2.33-1.78-4.59-3.63-7.67-4a4.85,4.85,0,0,1-1.82-.93,77,77,0,0,1-17.94-15.53c-1-1.24-1.54-2.89-2.38-4.3a5.78,5.78,0,0,0-1.31-1.25c-.8-.69-1.88-1.2-2.38-2.06-2.64-4.47-5.13-9-7.77-13.72a31.61,31.61,0,0,1,14.75-2.07,59.14,59.14,0,0,1,6.87,1.45,2.82,2.82,0,0,0,.54.13c9.29.24,16.18,4.71,21.43,12.09.08.1.2.2.22.31.12,1,.24,1.93.41,3.42C95.34,180.43,96.48,186.38,94.35,189.29Z"/><path class="cls-1" d="M169.72,178.1c0,2.25-3.1,5.15-5.58,5.2a4.83,4.83,0,0,1-4.47-4.69c0-2.15,3.45-5.57,5.58-5.58C167.14,173,169.69,175.93,169.72,178.1Z"/></svg>