<svg id="Capa_1" data-name="Capa 1" xmlns="http://www.w3.org/2000/svg" viewBox="0 0 255.12 255.12"><defs><style>.cls-1{fill:#b59d6e;}</style></defs><path class="cls-1" d="M184.66,227.38A17.54,17.54,0,0,1,174.45,224c-4.36-3.18-8-7-9.22-12.47-.3-1.29-.23-2.68-.56-4-1-3.93-3.08-6.78-7.48-7.36a12.43,12.43,0,0,1-8.17-4.87c-3.42-4.24-5.9-8.91-6.51-14.28-5.33-.12-8.56,2.62-10.5,7.14-2,4.7-1.77,9.27,1.44,13.36,4.59,5.84,5.26,12,1.79,18.54-4.16,7.83-3.22,15.4,1.06,23.12a18,18,0,0,1-8.7-9.57c-2.15-5.16-3.19-10.38-.9-15.93,1.72-4.15.64-8.09-2.74-10.41-4.3-3-5.76-7.23-6.43-12a26,26,0,0,1,1.41-13.08c-3.92-.69-7.53-2.57-11.44,0s-6.41,5.66-7,10.19a16.35,16.35,0,0,0,.34,5.11c1.14,5.93-.31,11-4.82,15.06a34.35,34.35,0,0,1-2.75,2.37c-5.78,4.28-7.71,10.39-8.24,17.17a22.59,22.59,0,0,0,.24,3.28,16,16,0,0,1-3.59-8.88,24.05,24.05,0,0,1,2-13.25c.71-1.51,2-2.73,3-4.12a40,40,0,0,0,3.29-4.84,6.48,6.48,0,0,0-.31-6.58,14.07,14.07,0,0,1-1.32-11.42c1.37-5.07,3.5-9.69,7.52-13.36-2-1.62-3.62-3.79-5.8-4.6a12.86,12.86,0,0,0-7.07,0,12,12,0,0,0-9.45,9.29C71.91,185,67.33,189.27,60,190.67c-8.52,1.63-13.67,7.06-17.37,14.74a37.38,37.38,0,0,1,0-5.4,23.58,23.58,0,0,1,8.94-15.09,13.63,13.63,0,0,1,4.1-2c2.34-.83,4.52-1.92,5.93-4a7.38,7.38,0,0,0,1.55-4c-.47-10.46,6.23-15.67,14.27-20a17,17,0,0,1,1.59-.63s.08-.09.19-.23c-.89-2-1.75-4-2.74-6A3.57,3.57,0,0,0,75.06,147c-6.32-3.84-13.27-2.8-18.05,2.83-3,3.58-6.67,6-11.42,6.12a21.47,21.47,0,0,1-6.24-.68c-8.17-2.2-15,.26-21.18,5.58a3.66,3.66,0,0,1-.64.32,13.79,13.79,0,0,1,3.91-7.22c5.08-5.11,10.81-8.61,18.53-7.47a11.2,11.2,0,0,0,5.72-1,6.72,6.72,0,0,0,3.51-3.24c2.55-6.91,8.29-9.35,14.66-10.84,2.74-.65,5.65-.6,8.81-.89,0-2.1,0-4.49,0-6.89a2.79,2.79,0,0,0-.41-1.41c-4-6-11-8.39-17-5.52C48.31,120,42,119,36.29,114c-6.35-5.59-14.61-6.15-22.16-4.18a29.6,29.6,0,0,1,3.26-2.8c5.78-3.74,12.1-4.49,18.71-2.94a12.5,12.5,0,0,1,3.74,1.83c5,3.24,8.33,3.2,12.83-.54,4.11-3.42,8.89-3.32,13.64-2.55,3.52.57,6.91,1.93,10.56,3,.87-1.67,2.08-3.75,3-6a5,5,0,0,0,0-2.79c-1.49-6.87-6.36-11-13.5-11.24-6.77-.18-11.48-3.25-14.46-9.21-.14-.29-.34-.54-.46-.83-3.38-8.25-10-12.08-18.6-13.67a18.41,18.41,0,0,1,13-.72c5.31,1.53,10,4,12.83,9.18,2.25,4.1,6,5.37,10.6,4.17a12.94,12.94,0,0,1,8.78.66c5.3,2.33,9.81,5.64,13,10.75a63.36,63.36,0,0,0,6.23-4.74c.79-.76,1-2.32,1.11-3.55.73-6.13-1.78-11.08-7.27-13.91-4.64-2.4-7.93-5.78-9-11a30,30,0,0,1-.5-6.28c.12-7.89-3.88-13.49-9.81-18.06-.23-.18-.48-.33-1.12-.77a17,17,0,0,1,9.38,2.84,23.84,23.84,0,0,1,8.7,9.48,17.63,17.63,0,0,1,1.49,5.86c.58,5.07,3.09,8.06,8,9a12.85,12.85,0,0,1,7.58,4.46c3.67,4.25,5.34,7.77,6.92,14.64,7.15.38,10.9-5.75,11.59-11.66.45-3.78-1-7-3.32-9.88A14.14,14.14,0,0,1,118,41.34a40.67,40.67,0,0,1,2.1-6.5c.81-2.41,2-4.75,2.4-7.22.84-4.74-.66-10.65-3.67-15.68.93.52,1.44.76,1.91,1.07,7.18,4.76,10.82,15.74,7.93,23.87-1.77,5-.82,8.58,3.32,11.6s5.32,7.62,5.8,12.39a23.38,23.38,0,0,1-1.48,12c4.7,1.87,9.17,2.43,13.38-1.2s6-7.94,4.83-13.28c-1.57-7.09.52-12.81,6.23-17,7.15-5.3,9.77-12.41,9.31-21.34a15.39,15.39,0,0,1,3.34,7.49,23.76,23.76,0,0,1-1.62,13.86c-.7,1.71-2.18,3.08-3.24,4.66-1.26,1.87-2.82,3.67-3.54,5.75a6.85,6.85,0,0,0,.31,5.1c2.83,5,2.46,9.85.65,14.93a25.39,25.39,0,0,1-6.66,10.52c1.89,1.58,3.64,3.17,5.54,4.53a5.42,5.42,0,0,0,2.71.67,13.79,13.79,0,0,0,14.1-9.79,30.63,30.63,0,0,1,3.47-7.55c2.2-3.25,5.72-4.85,9.52-5.52a21.77,21.77,0,0,0,15.22-10.24c.94-1.49,1.68-3.12,2.46-4.59.79,2,.71,5-.3,8.28a23.44,23.44,0,0,1-7.15,11.12c-1.77,1.52-4.13,2.41-6.32,3.38-3.39,1.5-6,3.54-6.55,7.5a6.45,6.45,0,0,0,0,1.52A11.82,11.82,0,0,1,189.83,90,27.25,27.25,0,0,1,176,100.82c1.54,4.33,3.21,8.38,8.57,9.25,5.07.82,9.59,0,13-4,2.9-3.42,6.16-6.24,10.76-6.66a21.9,21.9,0,0,1,7.17.54c8.49,2.12,15.4-.12,22.23-6.17a14.83,14.83,0,0,1-3.61,7.11,24,24,0,0,1-13.43,7.91,29.09,29.09,0,0,1-4,.07c-2.32.15-4.75.05-6.92.74a6.44,6.44,0,0,0-3.73,3.23c-2.8,7.32-8.91,9.77-15.74,11.17a62.31,62.31,0,0,1-7.68.63c.29,3.78-1.39,8,2.73,11.31s8.48,4.75,13.66,3a46.32,46.32,0,0,1,7.44-2.23,13.61,13.61,0,0,1,10.09,2.74,28,28,0,0,1,2.61,1.94c6.32,5.67,15.25,5.88,21.75,3.63-1.12,2.12-4.44,4.44-8.18,5.64a25.1,25.1,0,0,1-12.28.79c-1.75-.32-3.37-1.4-5.06-2.11a39.57,39.57,0,0,0-5.43-2.2,6.06,6.06,0,0,0-5.91,1.4c-4.86,4.81-10.74,4.85-16.79,3.58a83.73,83.73,0,0,1-8.9-2.89c-.95,1.84-2.08,4-3.16,6.14a2.23,2.23,0,0,0-.19,1.09,13.53,13.53,0,0,0,13.09,12.78c7.32.15,12.58,3.33,15.52,10.05,3.45,7.89,9.59,12.11,17.9,13.52.11,0,.2.14.46.33a16.5,16.5,0,0,1-9.85,1.24,22.49,22.49,0,0,1-11-4.47,24.52,24.52,0,0,1-4.3-5c-2.13-2.91-4.58-5.16-8.48-5a10,10,0,0,0-2.43.46,12.87,12.87,0,0,1-9.64-1c-5-2.39-9.25-5.61-12.09-10.4-2,1.5-3.95,2.83-5.76,4.34s-1.77,4.08-1.69,6.21c.17,5.22,2.5,9.33,7.32,11.67,6.67,3.24,9.71,8.59,9.41,15.87-.31,7.61,2.89,13.54,8.46,18.41a13.46,13.46,0,0,0,1.23.91Zm-29.1-145a2,2,0,0,1,.36-.41c5.2-3.52,7.62-8.75,9-14.63a11.08,11.08,0,0,0-.93-8c-2.73-5.12-2-10.3,2.32-14.22s5-9.14,5.13-14.6c-1.47,5.47-5.06,9.31-9.37,12.64-4.86,3.76-6.7,8.62-5.33,14.68,2,8.9-3.78,16.56-12.56,19a2.82,2.82,0,0,1-1.32.07c-3.28-.7-6.55-1.44-10-2.21A18.93,18.93,0,0,0,135.68,63c-.31-4.81-.63-9.76-5.19-12.74a11.18,11.18,0,0,1-4-13.72c2.07-5,.89-9.6-.94-14.25-.1-.27-.38-.48-1-1.18,1.12,5.64-.21,10.31-2.48,14.77-2.95,5.81-2.65,11.19,1.52,16.39a14.28,14.28,0,0,1,2.75,12.46c-.9,4.15-2.94,7.86-6.51,10-2.6,1.55-6,1.82-9,2.66-1.45-8.56-2-10.2-5.29-14.74a12.75,12.75,0,0,0-8.15-5.53c-5.32-1-8.87-4.66-9.17-10-.32-5.57-3.31-9.34-7.08-12.82a4.78,4.78,0,0,0-1-.55c3.25,4.61,3.77,9.76,3.74,15.07,0,6.07,2.67,10.41,8.15,13.15,6.36,3.18,9,8.59,8.54,15.53-.13,1.9-.47,4.27-1.67,5.49-2.5,2.56-5.64,4.49-8.59,6.74a8.25,8.25,0,0,1-.55-.87c-2.37-5-6.47-8.27-11.28-10.74a11.37,11.37,0,0,0-9.22-1,9,9,0,0,1-7.24-.52A13.58,13.58,0,0,1,56.19,71c-2.74-5-7.61-6.44-12.58-7.75,6.25,4.87,6.25,4.87,10.24,12.27.36.67.73,1.35,1.13,2a12.43,12.43,0,0,0,8.21,5.78,32.75,32.75,0,0,0,4.56.43A15.84,15.84,0,0,1,82.39,99.15a2.49,2.49,0,0,1-.1,1.13c-1.56,3.18-3.17,6.34-4.56,9.09-3-1.3-6-3-9.11-3.8-5.83-1.51-11.6-1.75-16.43,3.06a7.35,7.35,0,0,1-3.79,1.61,12.74,12.74,0,0,1-9.74-2.41c-4.63-3.18-9.6-2.38-14.61-1.25,5.57.11,10,2.7,14.15,6.09,4.78,3.94,9.94,4.9,15.65,2.14,7.34-3.56,15.19-.7,19.7,5.31a5.24,5.24,0,0,1,1.28,4.57,13.86,13.86,0,0,0,0,2.9,304,304,0,0,1,105.59,0v-5.42c2.69,0,5.33.34,7.85-.06,6.69-1.06,13-2.82,15.78-10.18a7.94,7.94,0,0,1,4.61-4.35,15.46,15.46,0,0,1,8.43-.91c5.22.69,9.14-2.07,13-5.06-5.25,2.2-10.5,1.53-15.78.3-3-.7-6.06-.89-8.76.71a23.63,23.63,0,0,0-5.7,4.63c-6,6.91-15.38,6.71-21.83,2.28a2.75,2.75,0,0,1-1-.89c-1.46-3-2.88-6.07-4.35-9.21.51-.17,1-.35,1.44-.46,6.21-1.44,10.56-5.42,14.07-10.48a10.42,10.42,0,0,0,1.64-6.93,9.16,9.16,0,0,1,2.43-7.19,13.86,13.86,0,0,1,6.54-4.13c5.41-1.6,7.85-6,10.57-10.86-2,1.64-3.51,3.35-5.37,4.24a60.58,60.58,0,0,1-9.3,3.34c-3.49,1-6.64,2.48-8.54,5.67a26.13,26.13,0,0,0-2.32,5.8,14.78,14.78,0,0,1-12.06,10.94c-2.48.48-5.53.75-7.63-.29C160.94,87.47,158.39,84.68,155.56,82.4Z"/></svg>