<svg id="Capa_1" data-name="Capa 1" xmlns="http://www.w3.org/2000/svg" viewBox="0 0 255.12 255.12"><defs><style>.cls-1{fill:#b59d6e;}</style></defs><path class="cls-1" d="M150.13,112.21c1.67,3.61,3,7.26,5,10.53,2.2,3.63,3.38,7.69,5.39,11.38,2.1,3.84,3.83,7.87,5.76,11.8s3.83,7.53,5.7,11.32q6.42,13,12.78,26m1.21,2c2.08,6,5.25,11.06,10.57,14.37a56.73,56.73,0,0,0,9.65,4.88,70.63,70.63,0,0,0,10.93,3c4.49.94,9.05,1.53,13.57,2.28,3.47.58,3.47.59,3.48,4.1v1.74c-3.31,0-6.47.1-9.63,0-6.13-.23-12.25-.7-18.37-.85-10-.24-20-.27-29.93-.5a3.16,3.16,0,0,1-2.31-1.45c-1.18-2.38-2-4.93-3.09-7.38q-6.23-14.64-12.5-29.25c-4.9-11.45-9.74-22.93-14.72-34.35-4.47-10.26-9.09-20.46-13.64-30.69-2.08-4.67-4.13-9.36-6.22-14-1-2.19-2-4.37-3.07-6.51-.25-.51-.89-1.2-1.3-1.16a2.26,2.26,0,0,0-1.58,1.11c-2.1,4.49-4.18,9-6.12,13.56-2.89,6.83-5.68,13.7-8.46,20.57-3.8,9.41-7.47,18.87-11.32,28.26-4,9.75-8,19.48-12.2,29.16-4,9.33-8.22,18.57-12.34,27.85-1.16,2.62-2.76,4-6,4-6.06-.17-12.15.17-18.21.49-6.34.34-12.67.94-19,1.38-1.1.07-2.46.61-2.87-1.17-.64-2.81-.13-4.15,1.79-4.82,7.55-2.65,15.17-5.12,22.61-8a33.81,33.81,0,0,0,17.94-16.57c4-7.7,7.35-15.71,11-23.59a34.41,34.41,0,0,0,2.5-6.14c.72-3.05,2.56-5.54,3.68-8.39,2.77-7,6.07-13.85,8.91-20.85,5-12.42,10.07-24.85,14.75-37.41,3-7.94,6-15.92,7-24.45.48-4.17.45-8.23-1.64-12.06A9.4,9.4,0,0,0,103,47.22c-3.41-.65-6.87-1-10.3-1.51-2.21-.35-2.65-1.21-2.28-4.12.25-1.86,1-2.66,3.61-2.27a55.93,55.93,0,0,0,13,.48,19.9,19.9,0,0,1,3.52.06,6.2,6.2,0,0,1,.79.08l.15,0c4.35,0,8.61,0,12.86,0q7-.07,13.93-.26c3-.09,6.05-.4,9.07-.36a2.67,2.67,0,0,1,2.24,1.5c1.28,3.07.09,4.84-3.12,5.17a16.39,16.39,0,0,0-10.17,4.35,12.65,12.65,0,0,0-3.67,10,58.55,58.55,0,0,0,2,12.9c1.58,5.63,3.84,11.07,5.88,16.56.1.26.25.56.35.85.29.87.44,1.23.72,2,.07.18.15.35.21.51q3.57,8.52,7.29,17"/><path class="cls-1" d="M90.83,184.18c8.5-11.69,20.11-16.68,34.27-14.49A32.43,32.43,0,0,1,146.7,183c2.83,3.87,5.69,7.71,8.63,11.69a14.51,14.51,0,0,1-10.4,4.56,6.44,6.44,0,0,1,.21-1.49,8,8,0,0,0-.76-7,54.5,54.5,0,0,0-4.6-6.53,2.21,2.21,0,0,0-2-.45c-.38.12-.78,1.16-.68,1.7,1,5.64-1,10.32-4.87,14.12a18.77,18.77,0,0,1-26.27.09,14.75,14.75,0,0,1-4.87-12.35c.1-1.24,0-2.5,0-3.76q-3.06-.44-6.55,6.1c-1.12,2.1-1.86,1.23-1.46,9.28A11.85,11.85,0,0,1,83,194.49l5.26-6.14m30.93,12.26a25.29,25.29,0,0,0,3.6-.91c5.51-2.31,7.88-7.6,7.13-14.31-.5-4.46-5.65-9-8.45-9.46-4.61-.72-8.85.38-11.09,5a23,23,0,0,0-2.2,7.06C107.54,193.42,112.52,200.52,119.22,200.61Z"/><path class="cls-1" d="M176.54,114A295.34,295.34,0,0,1,180,64c.86,4.44,1.75,8.22,2.27,12,.55,4,.88,8.12,1.08,12.2.3,6.36.43,12.73.59,19.1.11,4.3.14,8.6.23,12.9.05,2.35,1.14,3.13,3.44,2.41,2-.62,3.91-1.31,6-2,1.51,3.85.35,7.69.18,11.93-2.34-.9-4.46-1.73-6.59-2.53s-3.59.07-3.38,2.29a83.24,83.24,0,0,0,1.8,11.33c.38,1.57.26,2.42-.9,3.42-3.75,3.24-5.91,3-10.11-1,.77-4.25,1.51-8.21,2.19-12.19.5-3,.09-5-3.84-3.56-1.86.69-3.77,1.23-6.39,2.07V120.53c2.57.87,4.8,1.58,7,2.39a1.85,1.85,0,0,0,2.69-1.68,53.5,53.5,0,0,0,.07-6.47"/><path class="cls-1" d="M59.25,127.06l-13.39,5.21c-2.89-2.07-3.4-4.87-1.48-8.2h15l.34-.52c-3.32-3.63-6.64-7.26-10.15-11.08.78-2.13,2.1-4,5-4.43,1.86-.25,2.49.4,3,2.19,1.07,3.7,2.55,7.28,3.86,10.9l1-.1c1-4.49,2-9,3.1-13.59,3.71-.85,5.13-.24,7.58,3.33L65,122.31l.62.63c4.84-1.66,10.22-2.09,13.47-6.44a13.42,13.42,0,0,1,1.61,3.43,59.62,59.62,0,0,1,.36,6.3H65a36,36,0,0,0,10.33,11.18c-1.88,4.25-3.07,5.05-7.21,4.77l-4.9-13.09-1.12,0c-.8,3.59-1.59,7.19-2.4,10.77-.25,1.08-.49,3.05-.84,3.07a12,12,0,0,1-4.87-.62,12,12,0,0,1-3-2.24c2.4-3.15,4.39-5.78,6.69-8.81"/></svg>